<?xml version="1.0" encoding="UTF-8"?>
<svg version="1.1" xmlns="http://www.w3.org/2000/svg" width="512" height="512">
<path d="M0 0 C168.96 0 337.92 0 512 0 C512 168.96 512 337.92 512 512 C343.04 512 174.08 512 0 512 C0 343.04 0 174.08 0 0 Z " fill="#FEFEFE" transform="translate(0,0)"/>
<path d="M0 0 C2.58455285 1.89533875 2.96275506 2.88826517 4 6 C5.58013217 6.25028811 7.16442306 6.47440946 8.75 6.6875 C9.63171875 6.81511719 10.5134375 6.94273437 11.421875 7.07421875 C14.59441175 6.98288815 15.6125994 5.99536429 18 4 C20.9375 3.5 20.9375 3.5 24 4 C25.71108689 5.62102968 27.37253306 7.29503463 29 9 C31.03477149 10.16103982 33.09437068 11.14565413 35.23046875 12.10546875 C37 13 37 13 39 15 C40.134375 15.45375 41.26875 15.9075 42.4375 16.375 C46.03027819 18.0138111 47.1178865 18.66965587 49 22 C49.0390625 24.5078125 49.0390625 24.5078125 48.625 27.125 C47.94349871 30.68906163 47.94349871 30.68906163 49 34 C51.02325068 34.53858541 51.02325068 34.53858541 53.375 34.875 C56.18698148 35.46958432 57.75247078 35.81247786 60.0625 37.5625 C61.29694502 40.77205706 61.17767863 43.56791543 61.0078125 46.9765625 C60.84774185 49.07103672 60.84774185 49.07103672 62 51 C63.13028045 60.58592278 61.58414238 68.06271465 56 76 C51.79632664 80.14159379 47.40484671 82.04138304 41.55078125 82.31640625 C40.70322266 82.35830078 39.85566406 82.40019531 38.98242188 82.44335938 C38.10134766 82.48267578 37.22027344 82.52199219 36.3125 82.5625 C35.41982422 82.60568359 34.52714844 82.64886719 33.60742188 82.69335938 C31.40509892 82.79935353 29.20266527 82.90142051 27 83 C26.86464844 83.78761719 26.72929687 84.57523437 26.58984375 85.38671875 C25.94292175 88.25288309 25.30916837 89.24503204 23 91 C22.34 91 21.68 91 21 91 C20.773125 91.763125 20.54625 92.52625 20.3125 93.3125 C18.73268318 96.54736301 17.16717283 97.41641358 14 99 C13.67 98.01 13.34 97.02 13 96 C14.65 95.34 16.3 94.68 18 94 C18 93.34 18 92.68 18 92 C16.35 92 14.7 92 13 92 C15.51219153 88.2317127 17.89681026 87.71587935 22 86 C23.41441874 83.17116253 23.31900332 81.12623255 23 78 C21.53958234 75.88329643 21.53958234 75.88329643 19 75 C15.37942732 74.99331283 15.37942732 74.99331283 12 76 C11.34 76.99 10.68 77.98 10 79 C8.02 78.505 8.02 78.505 6 78 C6.33 76.35 6.66 74.7 7 73 C2.23754895 68.46102967 -2.09937511 66.61328859 -8.375 64.8125 C-9.18710938 64.56564453 -9.99921875 64.31878906 -10.8359375 64.06445312 C-15.85553354 62.55616104 -20.90687684 61.23522872 -26 60 C-26.33 60.99 -26.66 61.98 -27 63 C-30.23696749 65.27786601 -33.12589254 65.55344392 -37 65 C-39.875 63 -39.875 63 -42 60 C-42.58705984 56.51099662 -42.61350378 53.22700757 -41 50 C-41.598125 49.73574219 -42.19625 49.47148437 -42.8125 49.19921875 C-45.07061475 47.96128798 -46.27930842 46.69898738 -48 44.8125 C-51.349662 41.84710658 -53.69969756 41.61948499 -58.125 41.875 C-62.82858449 42.5377245 -65.71371946 43.40563065 -69 47 C-69.763125 47.598125 -70.52625 48.19625 -71.3125 48.8125 C-73.7234752 51.93783822 -73.33847384 54.14139819 -73 58 C-72.71479595 59.67557379 -72.40044304 61.34817245 -72 63 C-71.39671875 62.98839844 -70.7934375 62.97679687 -70.171875 62.96484375 C-68.97304687 62.95130859 -68.97304687 62.95130859 -67.75 62.9375 C-66.96109375 62.92589844 -66.1721875 62.91429687 -65.359375 62.90234375 C-63 63 -63 63 -60.890625 63.56640625 C-58.79298496 64.22004518 -58.79298496 64.22004518 -56 63 C-56.04125 61.88625 -56.0825 60.7725 -56.125 59.625 C-56 56 -56 56 -54 54 C-51.5 53.75 -51.5 53.75 -49 54 C-47 56 -47 56 -46.875 59.125 C-46.91625 60.07375 -46.9575 61.0225 -47 62 C-47.55429688 62.17015625 -48.10859375 62.3403125 -48.6796875 62.515625 C-53.08709315 63.89285148 -53.08709315 63.89285148 -56.5 66.8125 C-57.13080144 69.5722563 -57.03080907 72.17711895 -57 75 C-55.17662109 75.39832031 -55.17662109 75.39832031 -53.31640625 75.8046875 C-51.73167183 76.16101832 -50.14704169 76.51781314 -48.5625 76.875 C-47.76005859 77.04902344 -46.95761719 77.22304687 -46.13085938 77.40234375 C-44.0717622 77.87150513 -42.03341657 78.42972759 -40 79 C-39.67 79.66 -39.34 80.32 -39 81 C-40.47923446 80.85485591 -41.95838296 80.70883578 -43.4375 80.5625 C-44.34628906 80.47742188 -45.25507813 80.39234375 -46.19140625 80.3046875 C-47.97634561 80.11105013 -49.75733093 79.87124204 -51.52734375 79.5703125 C-53.73546982 79.21025201 -55.76337408 78.91201679 -58 79 C-60.10413616 80.85410577 -60.10413616 80.85410577 -62 83 C-64.69578705 83.65955178 -67.21418212 83.81427881 -70 84 C-70 85.32 -70 86.64 -70 88 C-68.906875 87.773125 -67.81375 87.54625 -66.6875 87.3125 C-63 87 -63 87 -61.125 88.0625 C-59.62467313 90.64639628 -59.32735528 93.05380252 -59 96 C-55.70599196 97.24724576 -52.46835081 98.35771281 -49 99 C-46.28643812 97.77195874 -46.28643812 97.77195874 -44 96 C-39.00255433 95.46455939 -36.01626076 95.92874177 -32 99 C-31.67 99.66 -31.34 100.32 -31 101 C-29.02 101 -27.04 101 -25 101 C-24.67 101.66 -24.34 102.32 -24 103 C-26.97 103.99 -26.97 103.99 -30 105 C-29.938125 105.9075 -29.87625 106.815 -29.8125 107.75 C-30.01672076 111.28982642 -30.64551835 112.44931155 -33 115 C-31.26424351 115.87436418 -31.26424351 115.87436418 -29 116 C-23.8117529 113.08951992 -22.71079879 109.40252248 -21 104 C-20.34 104 -19.68 104 -19 104 C-19.33655166 110.50666545 -20.37869575 113.37869575 -25 118 C-25.99 118.495 -25.99 118.495 -27 119 C-27.69227032 121.80980673 -27.69227032 121.80980673 -28.125 125.0625 C-28.29257813 126.16722656 -28.46015625 127.27195312 -28.6328125 128.41015625 C-28.81457031 129.69212891 -28.81457031 129.69212891 -29 131 C-26.69 131 -24.38 131 -22 131 C-15.55895185 121.97557745 -15.55895185 121.97557745 -14.0625 111.4375 C-14.37444139 109.95821543 -14.68685919 108.47903114 -15 107 C-14.5625 103.875 -14.5625 103.875 -14 102 C-13.01 102.33 -12.02 102.66 -11 103 C-4.91431338 103.23294845 -4.91431338 103.23294845 1 102 C0.67 102.70125 0.34 103.4025 0 104.125 C-1.18851193 106.97558556 -1.18851193 106.97558556 -0.875 110.0625 C-1 113 -1 113 -2.625 115.3125 C-5 117 -5 117 -7.8671875 117.18359375 C-11.27960903 117.74107819 -11.27960903 117.74107819 -13.40625 120.984375 C-14.1256237 122.22741044 -14.82308245 123.48334367 -15.5 124.75 C-16.056875 125.68199219 -16.056875 125.68199219 -16.625 126.6328125 C-17.83535898 128.70243967 -17.83535898 128.70243967 -19 132 C-18.30764469 134.700384 -18.30764469 134.700384 -17 137 C-16.76880626 141.13836803 -17.34563764 144.17676994 -19.9375 147.4375 C-23.42933467 150.08282929 -25.61016212 150.50651976 -30 150 C-33.94875513 147.54134115 -35.66872408 146.01223197 -37.125 141.5625 C-36.97205541 137.20357921 -35.80439858 135.28515263 -33 132 C-32.34 132 -31.68 132 -31 132 C-31.01160156 131.31292969 -31.02320313 130.62585938 -31.03515625 129.91796875 C-31.04417969 129.01691406 -31.05320313 128.11585938 -31.0625 127.1875 C-31.07410156 126.29417969 -31.08570313 125.40085937 -31.09765625 124.48046875 C-31 122 -31 122 -30 119 C-32.74043097 118.50812778 -35.44637098 118.0369086 -38.2265625 117.8515625 C-43.62874796 117.47214479 -45.72906714 116.41674629 -50 113 C-52.15716682 112.57912895 -52.15716682 112.57912895 -54.5 112.4375 C-58.43089005 112.13060327 -60.94551704 111.69513203 -64 109 C-67 103.10344828 -67 103.10344828 -67 100 C-67.639375 99.690625 -68.27875 99.38125 -68.9375 99.0625 C-71 98 -71 98 -72 97 C-71.95875 95.845 -71.9175 94.69 -71.875 93.5 C-71.78731531 87.41687457 -73.64549952 82.03175072 -77 77 C-77.265625 75.0625 -77.265625 75.0625 -77.25 73 C-77.25515625 72.319375 -77.2603125 71.63875 -77.265625 70.9375 C-77 69 -77 69 -75 66 C-75.30185427 63.04182816 -75.66718829 60.66562342 -77 58 C-77.51206902 53.56206849 -77.38510517 51.57765776 -74.875 47.8125 C-72.23175804 44.98748782 -69.300607 42.99571586 -66 41 C-66.13019531 40.33613281 -66.26039063 39.67226562 -66.39453125 38.98828125 C-66.82100529 36.25805028 -67.11409914 33.76373481 -67 31 C-64.625 27.9375 -64.625 27.9375 -62 26 C-61.67 25.67 -61.34 25.34 -61 25 C-59.906875 24.938125 -58.81375 24.87625 -57.6875 24.8125 C-53.8839342 24.32137548 -53.8839342 24.32137548 -51.5625 21.5625 C-50.00963222 18.02196146 -49.8851773 16.65019413 -50.0625 12.9375 C-50.22137525 9.03623001 -50.18206023 8.26773563 -47.875 4.875 C-44.52518738 2.6903396 -42.92211001 2.40315717 -39 3 C-38.01 3.66 -37.02 4.32 -36 5 C-33.76655935 4.80109544 -33.76655935 4.80109544 -31.375 4.125 C-24.39783248 2.54852629 -18.01965864 2.56007002 -11 4 C-10.71125 3.360625 -10.4225 2.72125 -10.125 2.0625 C-7.74103666 -2.30809946 -4.32230822 -0.90995963 0 0 Z " fill="#F9FCFC" transform="translate(263,142)"/>
<path d="M0 0 C2.42866669 3.26408029 1.95082455 5.97395238 1.62890625 9.890625 C1.38382639 12.33284233 1.38382639 12.33284233 3.21484375 14.76171875 C6.2734239 16.53247568 8.10228676 16.57266337 11.58984375 16.13671875 C14.79460999 14.92926931 14.79460999 14.92926931 16.58984375 12.13671875 C22.7052858 12.73351849 28.28971314 14.0041363 34.15234375 15.82421875 C34.96380859 16.05560547 35.77527344 16.28699219 36.61132812 16.52539062 C42.39565726 18.31344394 46.30828892 20.86736457 50.58984375 25.13671875 C50.25984375 26.78671875 49.92984375 28.43671875 49.58984375 30.13671875 C51.07484375 30.63171875 51.07484375 30.63171875 52.58984375 31.13671875 C52.86828125 30.17765625 52.86828125 30.17765625 53.15234375 29.19921875 C54.58984375 27.13671875 54.58984375 27.13671875 57.90234375 26.13671875 C61.58984375 26.13671875 61.58984375 26.13671875 64.52734375 27.69921875 C66.58984375 30.13671875 66.58984375 30.13671875 67.21484375 33.07421875 C66.40142576 37.05996691 64.49253577 38.37562146 61.58984375 41.13671875 C61.42484375 42.02359375 61.25984375 42.91046875 61.08984375 43.82421875 C60.92484375 44.58734375 60.75984375 45.35046875 60.58984375 46.13671875 C58.02734375 47.44921875 58.02734375 47.44921875 55.58984375 48.13671875 C55.91984375 49.12671875 56.24984375 50.11671875 56.58984375 51.13671875 C55.89117187 51.18570313 55.1925 51.2346875 54.47265625 51.28515625 C53.56257813 51.35992187 52.6525 51.4346875 51.71484375 51.51171875 C50.80992187 51.58132812 49.905 51.6509375 48.97265625 51.72265625 C46.41042472 51.93240007 46.41042472 51.93240007 44.58984375 54.13671875 C39.7607514 55.84110428 35.68251548 56.23857218 30.58984375 56.13671875 C28.68151109 58.04505141 28.58225056 59.31136223 28.46484375 62.01171875 C28.44570738 64.98346307 28.44570738 64.98346307 29.21459961 67.10253906 C29.69798758 69.72296103 29.1206552 70.58090877 27.71875 72.80859375 C27.30947266 73.47246094 26.90019531 74.13632812 26.47851562 74.8203125 C25.82206055 75.84318359 25.82206055 75.84318359 25.15234375 76.88671875 C24.71857422 77.58410156 24.28480469 78.28148437 23.83789062 79 C22.76632348 80.71921761 21.67952019 82.42892175 20.58984375 84.13671875 C18.27984375 83.80671875 15.96984375 83.47671875 13.58984375 83.13671875 C13.60284497 79.06083554 13.76785187 75.13602538 14.58984375 71.13671875 C17.46484375 68.51171875 17.46484375 68.51171875 20.58984375 66.13671875 C21.96559904 62.88447372 22.82767123 59.57986655 23.58984375 56.13671875 C22.92984375 56.13671875 22.26984375 56.13671875 21.58984375 56.13671875 C21.49703125 57.43609375 21.49703125 57.43609375 21.40234375 58.76171875 C20.32604741 63.23248815 18.87784605 64.92344378 15.58984375 68.13671875 C12.90234375 69.13671875 12.90234375 69.13671875 10.58984375 69.13671875 C9.59984375 68.14671875 9.59984375 68.14671875 8.58984375 67.13671875 C9.06421875 66.60046875 9.53859375 66.06421875 10.02734375 65.51171875 C11.81488441 63.17742564 11.81488441 63.17742564 11.96484375 60.07421875 C12.58984375 57.13671875 12.58984375 57.13671875 15.15234375 55.26171875 C15.95671875 54.89046875 16.76109375 54.51921875 17.58984375 54.13671875 C16.68234375 54.21921875 15.77484375 54.30171875 14.83984375 54.38671875 C11.58984375 54.13671875 11.58984375 54.13671875 9.33984375 52.19921875 C8.76234375 51.51859375 8.18484375 50.83796875 7.58984375 50.13671875 C4.51789467 48.60074421 1.98740082 48.91021495 -1.41015625 49.13671875 C-2.35890625 49.71421875 -3.30765625 50.29171875 -4.28515625 50.88671875 C-7.8720136 52.32146169 -8.65220949 52.11868473 -12.16015625 50.82421875 C-14.80875829 49.50214345 -16.10678808 48.74926674 -17.4296875 46.078125 C-17.97265625 43.88671875 -17.97265625 43.88671875 -18.41015625 40.13671875 C-21.38015625 40.13671875 -24.35015625 40.13671875 -27.41015625 40.13671875 C-27.41015625 38.81671875 -27.41015625 37.49671875 -27.41015625 36.13671875 C-26.62769531 35.95496094 -25.84523437 35.77320313 -25.0390625 35.5859375 C-24.02714844 35.33457031 -23.01523438 35.08320313 -21.97265625 34.82421875 C-20.96332031 34.58058594 -19.95398438 34.33695313 -18.9140625 34.0859375 C-18.08777344 33.77269531 -17.26148438 33.45945313 -16.41015625 33.13671875 C-16.08015625 32.14671875 -15.75015625 31.15671875 -15.41015625 30.13671875 C-9.41015625 30.80338542 -3.41015625 31.47005208 2.58984375 32.13671875 C-3.02015625 30.48671875 -8.63015625 28.83671875 -14.41015625 27.13671875 C-15.41015625 19.13671875 -15.41015625 19.13671875 -13.84765625 16.69921875 C-11.00228033 14.87525983 -8.75286453 14.44060132 -5.41015625 14.13671875 C-5.36761269 12.13717129 -5.36934842 10.13630239 -5.41015625 8.13671875 C-6.46974395 6.85349328 -6.46974395 6.85349328 -8.91015625 7.01171875 C-11.35056855 6.85349328 -11.35056855 6.85349328 -12.41015625 8.13671875 C-12.77776356 10.46489839 -13.11257206 12.79855725 -13.41015625 15.13671875 C-15.78515625 16.19921875 -15.78515625 16.19921875 -18.41015625 17.13671875 C-19.07015625 16.80671875 -19.73015625 16.47671875 -20.41015625 16.13671875 C-21.9468449 15.91204044 -23.48983679 15.7287507 -25.03515625 15.57421875 C-25.85242188 15.49042969 -26.6696875 15.40664062 -27.51171875 15.3203125 C-28.45144531 15.22943359 -28.45144531 15.22943359 -29.41015625 15.13671875 C-31.41364498 11.00452324 -31.98186199 7.71036469 -31.41015625 3.13671875 C-29.22265625 0.44921875 -29.22265625 0.44921875 -26.41015625 -1.86328125 C-25.32734375 -2.97703125 -25.32734375 -2.97703125 -24.22265625 -4.11328125 C-15.38410219 -9.612826 -7.16564165 -6.3650113 0 0 Z " fill="#F9FBFB" transform="translate(220.41015625,189.86328125)"/>
<path d="M0 0 C1.9375 1.125 1.9375 1.125 3 3 C3.63074205 8.8869258 3.63074205 8.8869258 1.9375 11.875 C-0.92113133 13.53485045 -3.74739303 13.69315029 -7 14 C-7.268125 14.804375 -7.53625 15.60875 -7.8125 16.4375 C-8.204375 17.283125 -8.59625 18.12875 -9 19 C-10.485 19.495 -10.485 19.495 -12 20 C-11.649375 19.2575 -11.29875 18.515 -10.9375 17.75 C-9.91312664 14.74517149 -10.00037093 13.90801184 -11 11 C-11.34428141 9.33556039 -11.67881752 7.66905084 -12 6 C-14.75084547 6.11411804 -17.50011947 6.24085949 -20.25 6.375 C-21.02730469 6.4059375 -21.80460937 6.436875 -22.60546875 6.46875 C-28.12361851 6.64929868 -28.12361851 6.64929868 -33 9 C-33.81171228 11.55519921 -33.81171228 11.55519921 -34 14 C-34.66 14 -35.32 14 -36 14 C-36.185625 14.9590625 -36.185625 14.9590625 -36.375 15.9375 C-36.58125 16.618125 -36.7875 17.29875 -37 18 C-39 19 -39 19 -42.8125 18.625 C-45.59289871 18.5540973 -46.59038341 18.61091312 -48.63671875 20.5546875 C-49.87752108 22.32523065 -50.9870249 24.09093154 -52 26 C-51.6596875 26.57363281 -51.319375 27.14726562 -50.96875 27.73828125 C-49.85902909 30.32912159 -50.06196334 31.45474855 -50.5 34.1875 C-50.64337259 37.78376251 -50.17710221 38.79358862 -47.78125 41.5859375 C-45.25632465 43.83425586 -42.69724807 45.96261441 -40 48 C-39.40058594 47.67773438 -38.80117187 47.35546875 -38.18359375 47.0234375 C-35.21968042 45.63426882 -33.24345212 45.6028426 -30 46 C-27.25 47.5625 -27.25 47.5625 -25 50 C-24.85304687 51.13050781 -24.70609375 52.26101562 -24.5546875 53.42578125 C-23.41157821 57.07531151 -23.41157821 57.07531151 -20.81640625 58.14379883 C-17.85699481 59.10314835 -14.89877231 59.89332176 -11.875 60.625 C-5.23574239 62.31834601 0.60681579 63.87840214 6.27685547 67.82958984 C9.81172647 70.2305776 12.1030606 71.20971542 16.375 70.8125 C19.87431807 70.72574005 21.78400136 71.07867921 24.5625 73.25 C27 76 27 76 27 80 C30.21095289 79.77843074 33.4175862 79.51765623 36.625 79.25 C37.52863281 79.188125 38.43226563 79.12625 39.36328125 79.0625 C44.93726514 78.57426783 48.6192425 77.77137856 53 74 C54.67192698 72.03940802 54.67192698 72.03940802 55.8125 69.9375 C56.40998047 68.93009766 56.40998047 68.93009766 57.01953125 67.90234375 C58.8619823 64.32754829 59.13564562 61.4601695 59.125 57.5 C59.12757813 56.5409375 59.13015625 55.581875 59.1328125 54.59375 C59.10992972 51.88428848 59.10992972 51.88428848 58 49 C58.99 49 59.98 49 61 49 C63.70005479 54.40010958 62.71326619 61.8143486 60.90625 67.3515625 C57.95054173 73.68746905 55.15159071 77.63403527 49 81 C46.27498092 81.90833969 44.37766029 82.18359985 41.55078125 82.31640625 C40.70322266 82.35830078 39.85566406 82.40019531 38.98242188 82.44335938 C38.10134766 82.48267578 37.22027344 82.52199219 36.3125 82.5625 C35.41982422 82.60568359 34.52714844 82.64886719 33.60742188 82.69335938 C31.40509892 82.79935353 29.20266527 82.90142051 27 83 C26.86464844 83.78761719 26.72929687 84.57523437 26.58984375 85.38671875 C25.94292175 88.25288309 25.30916837 89.24503204 23 91 C22.34 91 21.68 91 21 91 C20.773125 91.763125 20.54625 92.52625 20.3125 93.3125 C18.73268318 96.54736301 17.16717283 97.41641358 14 99 C13.67 98.01 13.34 97.02 13 96 C14.65 95.34 16.3 94.68 18 94 C18 93.34 18 92.68 18 92 C16.35 92 14.7 92 13 92 C15.51219153 88.2317127 17.89681026 87.71587935 22 86 C23.41441874 83.17116253 23.31900332 81.12623255 23 78 C21.53958234 75.88329643 21.53958234 75.88329643 19 75 C15.37942732 74.99331283 15.37942732 74.99331283 12 76 C11.34 76.99 10.68 77.98 10 79 C8.02 78.505 8.02 78.505 6 78 C6.33 76.35 6.66 74.7 7 73 C2.23754895 68.46102967 -2.09937511 66.61328859 -8.375 64.8125 C-9.18710938 64.56564453 -9.99921875 64.31878906 -10.8359375 64.06445312 C-15.85553354 62.55616104 -20.90687684 61.23522872 -26 60 C-26.33 60.99 -26.66 61.98 -27 63 C-30.23696749 65.27786601 -33.12589254 65.55344392 -37 65 C-39.875 63 -39.875 63 -42 60 C-42.58705984 56.51099662 -42.61350378 53.22700757 -41 50 C-41.598125 49.73574219 -42.19625 49.47148437 -42.8125 49.19921875 C-45.07061475 47.96128798 -46.27930842 46.69898738 -48 44.8125 C-51.349662 41.84710658 -53.69969756 41.61948499 -58.125 41.875 C-62.82858449 42.5377245 -65.71371946 43.40563065 -69 47 C-69.763125 47.598125 -70.52625 48.19625 -71.3125 48.8125 C-73.7234752 51.93783822 -73.33847384 54.14139819 -73 58 C-72.71479595 59.67557379 -72.40044304 61.34817245 -72 63 C-71.39671875 62.98839844 -70.7934375 62.97679687 -70.171875 62.96484375 C-68.97304687 62.95130859 -68.97304687 62.95130859 -67.75 62.9375 C-66.96109375 62.92589844 -66.1721875 62.91429687 -65.359375 62.90234375 C-63 63 -63 63 -60.890625 63.56640625 C-58.79298496 64.22004518 -58.79298496 64.22004518 -56 63 C-56.04125 61.88625 -56.0825 60.7725 -56.125 59.625 C-56 56 -56 56 -54 54 C-51.5 53.75 -51.5 53.75 -49 54 C-47 56 -47 56 -46.875 59.125 C-46.91625 60.07375 -46.9575 61.0225 -47 62 C-47.55429688 62.17015625 -48.10859375 62.3403125 -48.6796875 62.515625 C-53.08709315 63.89285148 -53.08709315 63.89285148 -56.5 66.8125 C-57.13080144 69.5722563 -57.03080907 72.17711895 -57 75 C-55.17662109 75.39832031 -55.17662109 75.39832031 -53.31640625 75.8046875 C-51.73167183 76.16101832 -50.14704169 76.51781314 -48.5625 76.875 C-47.76005859 77.04902344 -46.95761719 77.22304687 -46.13085938 77.40234375 C-44.0717622 77.87150513 -42.03341657 78.42972759 -40 79 C-39.67 79.66 -39.34 80.32 -39 81 C-40.47923446 80.85485591 -41.95838296 80.70883578 -43.4375 80.5625 C-44.34628906 80.47742188 -45.25507813 80.39234375 -46.19140625 80.3046875 C-47.97634561 80.11105013 -49.75733093 79.87124204 -51.52734375 79.5703125 C-53.73546982 79.21025201 -55.76337408 78.91201679 -58 79 C-60.10413616 80.85410577 -60.10413616 80.85410577 -62 83 C-64.69578705 83.65955178 -67.21418212 83.81427881 -70 84 C-70 85.32 -70 86.64 -70 88 C-68.906875 87.773125 -67.81375 87.54625 -66.6875 87.3125 C-63 87 -63 87 -61.125 88.0625 C-59.62467313 90.64639628 -59.32735528 93.05380252 -59 96 C-55.70599196 97.24724576 -52.46835081 98.35771281 -49 99 C-46.28643812 97.77195874 -46.28643812 97.77195874 -44 96 C-39.00255433 95.46455939 -36.01626076 95.92874177 -32 99 C-31.67 99.66 -31.34 100.32 -31 101 C-29.02 101 -27.04 101 -25 101 C-24.67 101.66 -24.34 102.32 -24 103 C-26.97 103.99 -26.97 103.99 -30 105 C-29.938125 105.9075 -29.87625 106.815 -29.8125 107.75 C-30.01672076 111.28982642 -30.64551835 112.44931155 -33 115 C-31.26424351 115.87436418 -31.26424351 115.87436418 -29 116 C-23.8117529 113.08951992 -22.71079879 109.40252248 -21 104 C-20.34 104 -19.68 104 -19 104 C-19.33655166 110.50666545 -20.37869575 113.37869575 -25 118 C-25.99 118.495 -25.99 118.495 -27 119 C-27.69227032 121.80980673 -27.69227032 121.80980673 -28.125 125.0625 C-28.29257813 126.16722656 -28.46015625 127.27195312 -28.6328125 128.41015625 C-28.81457031 129.69212891 -28.81457031 129.69212891 -29 131 C-26.69 131 -24.38 131 -22 131 C-15.55895185 121.97557745 -15.55895185 121.97557745 -14.0625 111.4375 C-14.37444139 109.95821543 -14.68685919 108.47903114 -15 107 C-14.5625 103.875 -14.5625 103.875 -14 102 C-13.01 102.33 -12.02 102.66 -11 103 C-4.91431338 103.23294845 -4.91431338 103.23294845 1 102 C0.67 102.70125 0.34 103.4025 0 104.125 C-1.18851193 106.97558556 -1.18851193 106.97558556 -0.875 110.0625 C-1 113 -1 113 -2.625 115.3125 C-5 117 -5 117 -7.8671875 117.18359375 C-11.27960903 117.74107819 -11.27960903 117.74107819 -13.40625 120.984375 C-14.1256237 122.22741044 -14.82308245 123.48334367 -15.5 124.75 C-16.056875 125.68199219 -16.056875 125.68199219 -16.625 126.6328125 C-17.83535898 128.70243967 -17.83535898 128.70243967 -19 132 C-18.30764469 134.700384 -18.30764469 134.700384 -17 137 C-16.76880626 141.13836803 -17.34563764 144.17676994 -19.9375 147.4375 C-23.42933467 150.08282929 -25.61016212 150.50651976 -30 150 C-33.94875513 147.54134115 -35.66872408 146.01223197 -37.125 141.5625 C-36.97205541 137.20357921 -35.80439858 135.28515263 -33 132 C-32.34 132 -31.68 132 -31 132 C-31.01160156 131.31292969 -31.02320313 130.62585938 -31.03515625 129.91796875 C-31.04417969 129.01691406 -31.05320313 128.11585938 -31.0625 127.1875 C-31.07410156 126.29417969 -31.08570313 125.40085937 -31.09765625 124.48046875 C-31 122 -31 122 -30 119 C-32.74043097 118.50812778 -35.44637098 118.0369086 -38.2265625 117.8515625 C-43.62874796 117.47214479 -45.72906714 116.41674629 -50 113 C-52.15716682 112.57912895 -52.15716682 112.57912895 -54.5 112.4375 C-58.43089005 112.13060327 -60.94551704 111.69513203 -64 109 C-67 103.10344828 -67 103.10344828 -67 100 C-67.639375 99.690625 -68.27875 99.38125 -68.9375 99.0625 C-71 98 -71 98 -72 97 C-71.95875 95.845 -71.9175 94.69 -71.875 93.5 C-71.78731531 87.41687457 -73.64549952 82.03175072 -77 77 C-77.265625 75.0625 -77.265625 75.0625 -77.25 73 C-77.25515625 72.319375 -77.2603125 71.63875 -77.265625 70.9375 C-77 69 -77 69 -75 66 C-75.30185427 63.04182816 -75.66718829 60.66562342 -77 58 C-77.51206902 53.56206849 -77.38510517 51.57765776 -74.875 47.8125 C-72.23175804 44.98748782 -69.300607 42.99571586 -66 41 C-66.13019531 40.33613281 -66.26039063 39.67226562 -66.39453125 38.98828125 C-66.82100529 36.25805028 -67.11409914 33.76373481 -67 31 C-64.625 27.9375 -64.625 27.9375 -62 26 C-61.67 25.67 -61.34 25.34 -61 25 C-59.906875 24.938125 -58.81375 24.87625 -57.6875 24.8125 C-53.8839342 24.32137548 -53.8839342 24.32137548 -51.5625 21.5625 C-50.00963222 18.02196146 -49.8851773 16.65019413 -50.0625 12.9375 C-50.22137525 9.03623001 -50.18206023 8.26773563 -47.875 4.875 C-44.52518738 2.6903396 -42.92211001 2.40315717 -39 3 C-38.01 3.66 -37.02 4.32 -36 5 C-33.76655935 4.80109544 -33.76655935 4.80109544 -31.375 4.125 C-24.39783248 2.54852629 -18.01965864 2.56007002 -11 4 C-10.71125 3.360625 -10.4225 2.72125 -10.125 2.0625 C-7.74103666 -2.30809946 -4.32230822 -0.90995963 0 0 Z " fill="#1AA7A9" transform="translate(263,142)"/>
<path d="M0 0 C4.09176042 0.66804252 5.22781489 2.53032988 8.0625 5.5 C10.09727149 6.66103982 12.15687068 7.64565413 14.29296875 8.60546875 C16.0625 9.5 16.0625 9.5 18.0625 11.5 C19.196875 11.95375 20.33125 12.4075 21.5 12.875 C25.09277819 14.5138111 26.1803865 15.16965587 28.0625 18.5 C28.1015625 21.0078125 28.1015625 21.0078125 27.6875 23.625 C27.00599871 27.18906163 27.00599871 27.18906163 28.0625 30.5 C30.08575068 31.03858541 30.08575068 31.03858541 32.4375 31.375 C36.7989979 32.27642246 36.7989979 32.27642246 39.125 34.25 C40.73281584 38.10875801 40.37294505 41.25821982 39.375 45.25 C38.0625 47.5 38.0625 47.5 35.875 48.875 C31.71218498 49.80007001 27.84519666 49.53190026 24.10546875 47.3671875 C22.1022836 46.29279801 22.1022836 46.29279801 19.9921875 46.8984375 C15.77668301 48.78224809 15.77668301 48.78224809 13.27734375 52.44921875 C13.01101515 53.84809035 12.76330457 55.25064656 12.53515625 56.65625 C12.0625 58.5 12.0625 58.5 9.8125 60.5625 C6.32967216 61.74982767 4.54753872 61.68639616 1.0625 60.5 C-1.375 58.375 -1.375 58.375 -2.9375 55.5 C-2.74920224 51.8595767 -2.08672369 48.94767107 -0.9375 45.5 C-1.81664688 42.8430809 -1.81664688 42.8430809 -2.9375 40.5 C-4.154375 40.5825 -5.37125 40.665 -6.625 40.75 C-9.72365729 40.72248084 -11.04730391 40.44738563 -13.9375 39.0625 C-16.46445714 35.82483617 -16.71887552 33.73569303 -16.4921875 29.6953125 C-15.85872202 27.18821673 -15.15246268 26.16253093 -13.25 24.4375 C-9.99828363 22.53555269 -8.59540882 21.96207223 -4.9375 22.5 C-4.6075 20.19 -4.2775 17.88 -3.9375 15.5 C-4.9275 15.17 -5.9175 14.84 -6.9375 14.5 C-7.2675 12.19 -7.5975 9.88 -7.9375 7.5 C-9.030625 7.355625 -10.12375 7.21125 -11.25 7.0625 C-14.9375 6.5 -14.9375 6.5 -17.9375 5.5 C-17.6075 4.51 -17.2775 3.52 -16.9375 2.5 C-16.26203125 2.60699219 -15.5865625 2.71398437 -14.890625 2.82421875 C-13.99859375 2.94410156 -13.1065625 3.06398437 -12.1875 3.1875 C-10.86492187 3.37892578 -10.86492187 3.37892578 -9.515625 3.57421875 C-5.54850618 3.46001381 -3.88039308 0.66049244 0 0 Z " fill="#93979B" transform="translate(283.9375,145.5)"/>
<path d="M0 0 C1.9375 1.1875 1.9375 1.1875 3 3 C3.5 5.875 3.5 5.875 3 9 C1.37550757 10.70779973 -0.29220027 12.37550757 -2 14 C-2.165 14.886875 -2.33 15.77375 -2.5 16.6875 C-2.665 17.450625 -2.83 18.21375 -3 19 C-5.5625 20.3125 -5.5625 20.3125 -8 21 C-7.505 22.485 -7.505 22.485 -7 24 C-8.04800781 24.07347656 -8.04800781 24.07347656 -9.1171875 24.1484375 C-10.02726562 24.22320312 -10.93734375 24.29796875 -11.875 24.375 C-13.23238281 24.47941406 -13.23238281 24.47941406 -14.6171875 24.5859375 C-17.17941903 24.79568132 -17.17941903 24.79568132 -19 27 C-23.82909235 28.70438553 -27.90732827 29.10185343 -33 29 C-34.90833266 30.90833266 -35.00759319 32.17464348 -35.125 34.875 C-35.14413637 37.84674432 -35.14413637 37.84674432 -34.37524414 39.96582031 C-33.89185617 42.58624228 -34.46918855 43.44419002 -35.87109375 45.671875 C-36.28037109 46.33574219 -36.68964844 46.99960937 -37.11132812 47.68359375 C-37.7677832 48.70646484 -37.7677832 48.70646484 -38.4375 49.75 C-38.87126953 50.44738281 -39.30503906 51.14476562 -39.75195312 51.86328125 C-40.82352027 53.58249886 -41.91032356 55.292203 -43 57 C-45.31 56.67 -47.62 56.34 -50 56 C-49.98699878 51.92411679 -49.82199188 47.99930663 -49 44 C-46.125 41.375 -46.125 41.375 -43 39 C-41.62424471 35.74775497 -40.76217252 32.4431478 -40 29 C-40.66 29 -41.32 29 -42 29 C-42.0928125 30.299375 -42.0928125 30.299375 -42.1875 31.625 C-43.26379634 36.0957694 -44.7119977 37.78672503 -48 41 C-50.6875 42 -50.6875 42 -53 42 C-53.66 41.34 -54.32 40.68 -55 40 C-54.2884375 39.195625 -54.2884375 39.195625 -53.5625 38.375 C-51.77495934 36.04070689 -51.77495934 36.04070689 -51.625 32.9375 C-51 30 -51 30 -48.4375 28.125 C-47.2309375 27.568125 -47.2309375 27.568125 -46 27 C-46.9075 27.0825 -47.815 27.165 -48.75 27.25 C-52 27 -52 27 -54.25 25.0625 C-54.8275 24.381875 -55.405 23.70125 -56 23 C-59.07194908 21.46402546 -61.60244293 21.7734962 -65 22 C-65.94875 22.5775 -66.8975 23.155 -67.875 23.75 C-71.46185735 25.18474294 -72.24205324 24.98196598 -75.75 23.6875 C-78.39860204 22.3654247 -79.69663183 21.61254799 -81.01953125 18.94140625 C-81.5625 16.75 -81.5625 16.75 -82 13 C-84.97 13 -87.94 13 -91 13 C-91 11.68 -91 10.36 -91 9 C-90.21753906 8.81824219 -89.43507812 8.63648438 -88.62890625 8.44921875 C-87.61699219 8.19785156 -86.60507813 7.94648438 -85.5625 7.6875 C-84.55316406 7.44386719 -83.54382813 7.20023438 -82.50390625 6.94921875 C-81.26447266 6.47935547 -81.26447266 6.47935547 -80 6 C-79.67 5.01 -79.34 4.02 -79 3 C-77.700625 3.144375 -76.40125 3.28875 -75.0625 3.4375 C-74.24394531 3.52128906 -73.42539063 3.60507813 -72.58203125 3.69140625 C-70.90490428 3.89184956 -69.23309832 4.14695861 -67.57421875 4.46484375 C-65.29627005 4.8668347 -63.30918558 5.17205696 -61 5 C-59.29319053 3.37446717 -57.62339805 1.70884005 -56 0 C-52.23151241 -0.06497392 -50.03876588 0.06869266 -47.1875 2.625 C-45.67074973 5.65850054 -44.82088317 8.71646733 -44 12 C-43.113125 11.9175 -42.22625 11.835 -41.3125 11.75 C-38 12 -38 12 -35.796875 13.859375 C-32.3091878 16.52872218 -29.14695963 17.45052885 -24.9375 18.5 C-24.23044922 18.70625 -23.52339844 18.9125 -22.79492188 19.125 C-20.46868183 19.77714596 -20.46868183 19.77714596 -17 20 C-14.4678226 18.25812755 -14.4678226 18.25812755 -13 16 C-13.495 15.01 -13.495 15.01 -14 14 C-15.28687011 10.13938967 -15.13757618 7.05849717 -15 3 C-13.68 3.33 -12.36 3.66 -11 4 C-10.71125 3.360625 -10.4225 2.72125 -10.125 2.0625 C-7.74103666 -2.30809946 -4.32230822 -0.90995963 0 0 Z " fill="#6A7074" transform="translate(284,217)"/>
<path d="M0 0 C0.78826172 0.01353516 1.57652344 0.02707031 2.38867188 0.04101562 C4.32191169 0.07616544 6.25479682 0.12996639 8.1875 0.1875 C11.2109375 5.921875 11.2109375 5.921875 11 8.3125 C10.13258118 10.31423573 9.21781985 12.26423629 8.1875 14.1875 C8.8475 14.1875 9.5075 14.1875 10.1875 14.1875 C12.85475027 18.74405254 13.66663725 21.91699024 13.1875 27.1875 C12.56875 28.425 12.56875 28.425 11.9375 29.6875 C11.0525986 32.63717133 11.35764834 33.25599584 12.6875 35.9375 C14.49210111 38.77943984 14.8830402 39.10834045 18.3125 40 C19.26125 40.061875 20.21 40.12375 21.1875 40.1875 C23.1875 42.1875 23.1875 42.1875 23.5 45.125 C23.1875 48.1875 23.1875 48.1875 22.0625 50.0625 C19.34531176 51.69281294 17.29097254 51.51765665 14.1875 51.1875 C12.1875 49.1875 12.1875 49.1875 12.1328125 47.234375 C12.22175781 46.09742188 12.22175781 46.09742188 12.3125 44.9375 C12.36246044 41.5013323 12.08442631 39.93205651 10.75 36.625 C7.87347394 33.88879229 7.38623184 33.85049686 3.625 33.875 C2.86058594 33.94074219 2.09617188 34.00648438 1.30859375 34.07421875 C-0.8125 34.1875 -0.8125 34.1875 -3.8125 33.1875 C-4.10125 33.909375 -4.39 34.63125 -4.6875 35.375 C-5.72916667 37.97916667 -6.77083333 40.58333333 -7.8125 43.1875 C-8.4725 42.5275 -9.1325 41.8675 -9.8125 41.1875 C-13.86259412 40.8353179 -16.28587274 41.26388513 -19.8125 43.1875 C-30.33838625 35.00259819 -30.33838625 35.00259819 -31.47265625 30.66015625 C-31.375 28.3125 -31.375 28.3125 -31.00390625 26.1953125 C-30.76115088 23.64885824 -31.52679178 22.35137119 -32.8125 20.1875 C-31.13331081 17.1294644 -29.4287447 14.51759294 -26.8125 12.1875 C-23.37867883 11.49256 -20.26644199 11.69602999 -16.8125 12.1875 C-16.4825 10.8675 -16.1525 9.5475 -15.8125 8.1875 C-15.1525 8.1875 -14.4925 8.1875 -13.8125 8.1875 C-13.915625 7.424375 -14.01875 6.66125 -14.125 5.875 C-13.8125 3.1875 -13.8125 3.1875 -11.84375 1.53125 C-7.7847847 -0.26808513 -4.3799237 -0.14318275 0 0 Z " fill="#139A9B" transform="translate(242.8125,147.8125)"/>
<path d="M0 0 C4.6 2.2 4.6 2.2 6 5 C7.98 5 9.96 5 12 5 C12.495 5.99 12.495 5.99 13 7 C11.02 7.66 9.04 8.32 7 9 C7.061875 9.9075 7.12375 10.815 7.1875 11.75 C6.98327924 15.28982642 6.35448165 16.44931155 4 19 C5.73575649 19.87436418 5.73575649 19.87436418 8 20 C13.1882471 17.08951992 14.28920121 13.40252248 16 8 C16.66 8 17.32 8 18 8 C17.66344834 14.50666545 16.62130425 17.37869575 12 22 C11.01 22.495 11.01 22.495 10 23 C9.30772968 25.80980673 9.30772968 25.80980673 8.875 29.0625 C8.70742187 30.16722656 8.53984375 31.27195312 8.3671875 32.41015625 C8.18542969 33.69212891 8.18542969 33.69212891 8 35 C10.31 35 12.62 35 15 35 C21.44104815 25.97557745 21.44104815 25.97557745 22.9375 15.4375 C22.62555861 13.95821543 22.31314081 12.47903114 22 11 C22.4375 7.875 22.4375 7.875 23 6 C23.99 6.33 24.98 6.66 26 7 C32.08568662 7.23294845 32.08568662 7.23294845 38 6 C37.67 6.70125 37.34 7.4025 37 8.125 C35.81148807 10.97558556 35.81148807 10.97558556 36.125 14.0625 C36 17 36 17 34.375 19.3125 C32 21 32 21 29.1328125 21.18359375 C25.72039097 21.74107819 25.72039097 21.74107819 23.59375 24.984375 C22.8743763 26.22741044 22.17691755 27.48334367 21.5 28.75 C21.12875 29.37132812 20.7575 29.99265625 20.375 30.6328125 C19.16464102 32.70243967 19.16464102 32.70243967 18 36 C18.69235531 38.700384 18.69235531 38.700384 20 41 C20.23119374 45.13836803 19.65436236 48.17676994 17.0625 51.4375 C13.57066533 54.08282929 11.38983788 54.50651976 7 54 C3.05124487 51.54134115 1.33127592 50.01223197 -0.125 45.5625 C0.02794459 41.20357921 1.19560142 39.28515263 4 36 C4.66 36 5.32 36 6 36 C5.98839844 35.31292969 5.97679687 34.62585938 5.96484375 33.91796875 C5.95582031 33.01691406 5.94679687 32.11585938 5.9375 31.1875 C5.92589844 30.29417969 5.91429687 29.40085937 5.90234375 28.48046875 C6 26 6 26 7 23 C4.25956903 22.50812778 1.55362902 22.0369086 -1.2265625 21.8515625 C-6.34383699 21.49215526 -9.27286605 20.84360688 -13 17 C-13.33 16.34 -13.66 15.68 -14 15 C-15.99080727 14.49869796 -15.99080727 14.49869796 -18.3125 14.1875 C-21.79831801 13.48256547 -22.85880481 13.13086383 -25.5625 10.625 C-27 8 -27 8 -27 4 C-24 2 -24 2 -21.625 2.25 C-18.99253264 3.00213353 -16.51532871 3.92200198 -14 5 C-13.67 4.34 -13.34 3.68 -13 3 C-8.53642829 0.23683656 -5.22512887 -0.57001406 0 0 Z " fill="#4E595C" transform="translate(226,238)"/>
<path d="M0 0 C0.66 0.66 1.32 1.32 2 2 C0.63875 3.11375 0.63875 3.11375 -0.75 4.25 C-1.56597656 4.94222656 -1.56597656 4.94222656 -2.3984375 5.6484375 C-3.702963 6.74932975 -5.03522775 7.81728507 -6.375 8.875 C-8.73239453 11.95774669 -8.33245354 14.21002964 -8 18 C-7.71479595 19.67557379 -7.40044304 21.34817245 -7 23 C-6.39671875 22.98839844 -5.7934375 22.97679687 -5.171875 22.96484375 C-3.97304687 22.95130859 -3.97304687 22.95130859 -2.75 22.9375 C-1.56664062 22.92009766 -1.56664062 22.92009766 -0.359375 22.90234375 C2 23 2 23 4.109375 23.56640625 C6.20701504 24.22004518 6.20701504 24.22004518 9 23 C8.95875 21.88625 8.9175 20.7725 8.875 19.625 C9 16 9 16 11 14 C13.5 13.75 13.5 13.75 16 14 C18 16 18 16 18.125 19.125 C18.08375 20.07375 18.0425 21.0225 18 22 C17.44570312 22.17015625 16.89140625 22.3403125 16.3203125 22.515625 C11.91290685 23.89285148 11.91290685 23.89285148 8.5 26.8125 C7.86919856 29.5722563 7.96919093 32.17711895 8 35 C9.82337891 35.39832031 9.82337891 35.39832031 11.68359375 35.8046875 C13.26832817 36.16101832 14.85295831 36.51781314 16.4375 36.875 C17.23994141 37.04902344 18.04238281 37.22304687 18.86914062 37.40234375 C20.9282378 37.87150513 22.96658343 38.42972759 25 39 C25.33 39.66 25.66 40.32 26 41 C24.52076554 40.85485591 23.04161704 40.70883578 21.5625 40.5625 C20.65371094 40.47742188 19.74492187 40.39234375 18.80859375 40.3046875 C17.02365439 40.11105013 15.24266907 39.87124204 13.47265625 39.5703125 C11.26453018 39.21025201 9.23662592 38.91201679 7 39 C4.89586384 40.85410577 4.89586384 40.85410577 3 43 C0.30421295 43.65955178 -2.21418212 43.81427881 -5 44 C-5 45.32 -5 46.64 -5 48 C-3.906875 47.773125 -2.81375 47.54625 -1.6875 47.3125 C2 47 2 47 3.875 48.0625 C5.37532687 50.64639628 5.67264472 53.05380252 6 56 C7.134375 56.268125 8.26875 56.53625 9.4375 56.8125 C10.613125 57.204375 11.78875 57.59625 13 58 C13.33 58.99 13.66 59.98 14 61 C12.96939453 60.76603516 12.96939453 60.76603516 11.91796875 60.52734375 C11.01691406 60.33269531 10.11585938 60.13804687 9.1875 59.9375 C7.84751953 59.64166016 7.84751953 59.64166016 6.48046875 59.33984375 C3.87369221 58.79650537 3.87369221 58.79650537 1 60 C2.92391649 65.31411494 2.92391649 65.31411494 7 69 C8.19625 69.165 9.3925 69.33 10.625 69.5 C11.73875 69.665 12.8525 69.83 14 70 C14.495 70.99 14.495 70.99 15 72 C10.78875012 72.24772058 7.1197503 72.41382076 3.125 70.9375 C0.25432162 68.32011677 -0.74356083 65.63706075 -2 62 C-2 61.34 -2 60.68 -2 60 C-2.639375 59.690625 -3.27875 59.38125 -3.9375 59.0625 C-6 58 -6 58 -7 57 C-6.95875 55.845 -6.9175 54.69 -6.875 53.5 C-6.78731531 47.41687457 -8.64549952 42.03175072 -12 37 C-12.265625 35.0625 -12.265625 35.0625 -12.25 33 C-12.25515625 32.319375 -12.2603125 31.63875 -12.265625 30.9375 C-12 29 -12 29 -10 26 C-10.30185427 23.04182816 -10.66718829 20.66562342 -12 18 C-12.51206902 13.56206849 -12.38510517 11.57765776 -9.875 7.8125 C-7.25665409 5.01461037 -4.26344655 3.00256948 -1 1 C-0.67 0.67 -0.34 0.34 0 0 Z " fill="#122A2B" transform="translate(198,182)"/>
<path d="M0 0 C1.98 0 3.96 0 6 0 C6.33 0.99 6.66 1.98 7 3 C7.680625 2.505 8.36125 2.01 9.0625 1.5 C12.71831169 -0.36679746 14.93308428 -0.42809639 19 0 C23.15757553 1.59906751 25.7122114 3.14688235 28 7 C29.67009208 12.01027625 29.57792698 16.33043317 27.875 21.25 C25.56113855 24.64366345 23.69440942 26.18764821 20 28 C14.60364009 28.94171771 11.81253163 27.88751898 7 25 C6.67 28.96 6.34 32.92 6 37 C4.02 37 2.04 37 0 37 C0 24.79 0 12.58 0 0 Z " fill="#151718" transform="translate(249,330)"/>
<path d="M0 0 C2.75 1.5625 2.75 1.5625 5 4 C5.22042969 5.69576172 5.22042969 5.69576172 5.4453125 7.42578125 C6.58842179 11.07531151 6.58842179 11.07531151 9.18359375 12.14379883 C12.14300519 13.10314835 15.10122769 13.89332176 18.125 14.625 C24.76425761 16.31834601 30.60681579 17.87840214 36.27685547 21.82958984 C39.81172647 24.2305776 42.1030606 25.20971542 46.375 24.8125 C49.87431807 24.72574005 51.78400136 25.07867921 54.5625 27.25 C57 30 57 30 57 34 C60.21095289 33.77843074 63.4175862 33.51765623 66.625 33.25 C67.52863281 33.188125 68.43226563 33.12625 69.36328125 33.0625 C74.93726514 32.57426783 78.6192425 31.77137856 83 28 C84.67192698 26.03940802 84.67192698 26.03940802 85.8125 23.9375 C86.21082031 23.26589844 86.60914063 22.59429687 87.01953125 21.90234375 C88.8619823 18.32754829 89.13564562 15.4601695 89.125 11.5 C89.12757813 10.5409375 89.13015625 9.581875 89.1328125 8.59375 C89.10992972 5.88428848 89.10992972 5.88428848 88 3 C88.99 3 89.98 3 91 3 C93.70005479 8.40010958 92.71326619 15.8143486 90.90625 21.3515625 C87.95054173 27.68746905 85.15159071 31.63403527 79 35 C76.27498092 35.90833969 74.37766029 36.18359985 71.55078125 36.31640625 C70.70322266 36.35830078 69.85566406 36.40019531 68.98242188 36.44335938 C68.10134766 36.48267578 67.22027344 36.52199219 66.3125 36.5625 C65.41982422 36.60568359 64.52714844 36.64886719 63.60742188 36.69335938 C61.40509892 36.79935353 59.20266527 36.90142051 57 37 C56.86464844 37.78761719 56.72929687 38.57523438 56.58984375 39.38671875 C55.94292175 42.25288309 55.30916837 43.24503204 53 45 C52.34 45 51.68 45 51 45 C50.773125 45.763125 50.54625 46.52625 50.3125 47.3125 C48.73268318 50.54736301 47.16717283 51.41641358 44 53 C43.67 52.01 43.34 51.02 43 50 C44.65 49.34 46.3 48.68 48 48 C48 47.34 48 46.68 48 46 C46.35 46 44.7 46 43 46 C45.51219153 42.2317127 47.89681026 41.71587935 52 40 C53.41441874 37.17116253 53.31900332 35.12623255 53 32 C51.53958234 29.88329643 51.53958234 29.88329643 49 29 C45.37942732 28.99331283 45.37942732 28.99331283 42 30 C41.34 30.99 40.68 31.98 40 33 C38.68 32.67 37.36 32.34 36 32 C36.33 30.35 36.66 28.7 37 27 C32.23754895 22.46102967 27.90062489 20.61328859 21.625 18.8125 C20.81289062 18.56564453 20.00078125 18.31878906 19.1640625 18.06445312 C14.14446646 16.55616104 9.09312316 15.23522872 4 14 C3.67 14.99 3.34 15.98 3 17 C-0.23696749 19.27786601 -3.12589254 19.55344392 -7 19 C-9.90023933 16.98244221 -11.69251229 15.51713278 -12.4140625 11.95703125 C-12.5 9.8125 -12.5 9.8125 -12 6 C-11.01 5.34 -10.02 4.68 -9 4 C-8.67 3.01 -8.34 2.02 -8 1 C-5.14675563 -0.42662219 -3.16545451 -0.31033868 0 0 Z " fill="#1CA7A7" transform="translate(233,188)"/>
<path d="M0 0 C3.24208567 0.35049575 4.61527704 0.56221181 6.8125 3.0625 C7.204375 3.701875 7.59625 4.34125 8 5 C7.505 5.350625 7.01 5.70125 6.5 6.0625 C4.17908624 9.06034694 4.54886134 11.32644233 5 15 C6.41666667 17.58333333 6.41666667 17.58333333 9 19 C12.6675213 19.33417929 12.6675213 19.33417929 16 19 C16.625 21.3125 16.625 21.3125 17 24 C16.34 24.99 15.68 25.98 15 27 C14.979375 28.11375 14.95875 29.2275 14.9375 30.375 C14 34 14 34 12.0078125 35.56640625 C5.8840812 39 5.8840812 39 3 39 C3 38.34 3 37.68 3 37 C2.38511719 36.98582031 1.77023437 36.97164062 1.13671875 36.95703125 C-5.47933093 36.56661046 -5.47933093 36.56661046 -8.125 33.6875 C-9.10223543 30.68599119 -9.02404481 29.90146031 -8 27 C-6.99066513 22.2691974 -6.99066513 22.2691974 -7.8125 17.625 C-8.91985727 15.84911756 -8.91985727 15.84911756 -11 15 C-10.9375 11.6875 -10.9375 11.6875 -10 8 C-6.625 6.375 -6.625 6.375 -3 5 C-1.04499143 2.47019293 -1.04499143 2.47019293 0 0 Z " fill="#FBFCFC" transform="translate(292,155)"/>
<path d="M0 0 C3.64340727 1.43133857 6.78072622 3.8050406 10 6 C9.67 6.66 9.34 7.32 9 8 C8.68178855 12.13674887 8.60251055 14.35579297 10.8125 17.9375 C12 21 12 21 11.3671875 23.08203125 C9.68536401 26.17279958 8.21972851 28.42434476 4.98046875 29.953125 C1.97255991 30.73440002 -0.89885457 31 -4 31 C-8.28771226 28.14377592 -13.34875818 24.75357278 -14.58203125 19.5390625 C-14.5 17.1875 -14.5 17.1875 -14.15625 15.04296875 C-13.9609588 12.48953627 -14.71264763 11.16996896 -16 9 C-14.2577394 6.04343655 -12.4883421 3.3785623 -10 1 C-7.08933555 0.31545484 -5.03118381 0.64636189 -2 1 C-1.34 0.67 -0.68 0.34 0 0 Z " fill="#F5FCFC" transform="translate(226,159)"/>
<path d="M0 0 C6.48323952 0.5228419 13.05070535 1.19092806 19 4 C20.5 6.625 20.5 6.625 21 9 C23.7238399 10.36191995 25.98096827 10.06161289 29 10 C29.99 10 30.98 10 32 10 C32 14.33333333 32 18.66666667 32 23 C29.75 23.75 29.75 23.75 27 24 C24.8125 22.125 24.8125 22.125 23 20 C19.92805092 18.46402546 17.39755707 18.7734962 14 19 C13.05125 19.5775 12.1025 20.155 11.125 20.75 C7.53814265 22.18474294 6.75794676 21.98196598 3.25 20.6875 C0.60139796 19.3654247 -0.69663183 18.61254799 -2.01953125 15.94140625 C-2.5625 13.75 -2.5625 13.75 -3 10 C-5.97 10 -8.94 10 -12 10 C-12 8.68 -12 7.36 -12 6 C-11.21753906 5.81824219 -10.43507812 5.63648438 -9.62890625 5.44921875 C-8.11103516 5.07216797 -8.11103516 5.07216797 -6.5625 4.6875 C-5.04849609 4.32205078 -5.04849609 4.32205078 -3.50390625 3.94921875 C-2.26447266 3.47935547 -2.26447266 3.47935547 -1 3 C-0.67 2.01 -0.34 1.02 0 0 Z " fill="#F9FAFA" transform="translate(205,220)"/>
<path d="M0 0 C0.99 0.33 1.98 0.66 3 1 C9.08568662 1.23294845 9.08568662 1.23294845 15 0 C14.67 0.70125 14.34 1.4025 14 2.125 C12.81148807 4.97558556 12.81148807 4.97558556 13.125 8.0625 C13 11 13 11 11.375 13.3125 C9 15 9 15 6.1328125 15.18359375 C2.72039097 15.74107819 2.72039097 15.74107819 0.59375 18.984375 C-0.1256237 20.22741044 -0.82308245 21.48334367 -1.5 22.75 C-1.87125 23.37132812 -2.2425 23.99265625 -2.625 24.6328125 C-3.83535898 26.70243967 -3.83535898 26.70243967 -5 30 C-4.30764469 32.700384 -4.30764469 32.700384 -3 35 C-2.76880626 39.13836803 -3.34563764 42.17676994 -5.9375 45.4375 C-9.42933467 48.08282929 -11.61016212 48.50651976 -16 48 C-19.94875513 45.54134115 -21.66872408 44.01223197 -23.125 39.5625 C-22.97177911 35.19570474 -21.76736304 33.32083564 -19 30 C-16.59454362 28.79727181 -15.05003047 28.89928528 -12.375 28.9375 C-11.14910156 28.95103516 -11.14910156 28.95103516 -9.8984375 28.96484375 C-9.27195313 28.97644531 -8.64546875 28.98804688 -8 29 C-1.55895185 19.97557745 -1.55895185 19.97557745 -0.0625 9.4375 C-0.37444139 7.95821543 -0.68685919 6.47903114 -1 5 C-0.5625 1.875 -0.5625 1.875 0 0 Z " fill="#71767B" transform="translate(249,244)"/>
<path d="M0 0 C3.40000147 2.37209405 4.19929034 3.99873298 5.6875 7.875 C6.03265067 11.17863576 5.97240692 14.43316945 5.875 17.75 C5.85469727 19.06871094 5.85469727 19.06871094 5.83398438 20.4140625 C5.79886623 22.56797552 5.74506694 24.72157004 5.6875 26.875 C3.7075 26.875 1.7275 26.875 -0.3125 26.875 C-0.6425 26.215 -0.9725 25.555 -1.3125 24.875 C-1.88097656 25.19597656 -2.44945312 25.51695312 -3.03515625 25.84765625 C-6.76416824 27.52986921 -10.30774022 27.55908708 -14.3125 26.875 C-17.375 24.8125 -17.375 24.8125 -19.3125 21.875 C-19.9375 18.3125 -19.9375 18.3125 -19.3125 14.875 C-16.47571113 11.87854196 -14.89920394 10.93954389 -10.76171875 10.484375 C-9.52035156 10.53078125 -8.27898437 10.5771875 -7 10.625 C-5.74574219 10.66109375 -4.49148437 10.6971875 -3.19921875 10.734375 C-1.77029297 10.80398438 -1.77029297 10.80398438 -0.3125 10.875 C-1.40034968 7.62516865 -1.40034968 7.62516865 -3.3125 4.875 C-4.7471959 4.77605545 -6.18690397 4.74529265 -7.625 4.75 C-8.40488281 4.74742187 -9.18476563 4.74484375 -9.98828125 4.7421875 C-12.22501539 4.87000088 -14.16516979 5.25586131 -16.3125 5.875 C-16.6425 4.225 -16.9725 2.575 -17.3125 0.875 C-11.24204465 -1.55318214 -6.1895238 -2.10210242 0 0 Z " fill="#0E1012" transform="translate(236.3125,331.125)"/>
<path d="M0 0 C4.36350222 2.22291622 7.09544338 4.45022584 9 9 C9 11.31 9 13.62 9 16 C2.07 16 -4.86 16 -12 16 C-9.38997241 21.02137081 -9.38997241 21.02137081 -5 23 C-1.23814678 22.66412025 2.36394827 22.01809448 6 21 C6.66 21.99 7.32 22.98 8 24 C2.63225223 27.65463678 -1.49173368 29.12687297 -8 28 C-11.96118605 26.63882024 -14.49763611 24.71303262 -16.9375 21.25 C-18.7223511 15.79045546 -18.95974165 11.31372402 -16.375 6.1875 C-12.14100644 0.50503496 -6.8677371 -1.23372523 0 0 Z " fill="#141617" transform="translate(326,330)"/>
<path d="M0 0 C-0.33 1.65 -0.66 3.3 -1 5 C-2.175625 4.67 -3.35125 4.34 -4.5625 4 C-8.4510163 3.03305101 -11.97760181 2.67820814 -16 3 C-18.28083634 4.81924175 -18.28083634 4.81924175 -18.05078125 7.46484375 C-17.19924107 10.31811832 -17.19924107 10.31811832 -13.98046875 11.44140625 C-12.72878906 11.81136719 -11.47710937 12.18132812 -10.1875 12.5625 C-5.3970505 13.99715275 -2.15933602 15.02015681 1 19 C2.20056283 22.681726 2.1662903 24.50112911 0.9375 28.1875 C-1.4994367 31.72498876 -2.89811181 32.68153594 -7 34 C-14.4898203 34.92763829 -19.56933922 33.88266311 -26 30 C-25.625 28.0625 -25.625 28.0625 -25 26 C-24.34 25.67 -23.68 25.34 -23 25 C-22.154375 25.474375 -21.30875 25.94875 -20.4375 26.4375 C-16.2167384 28.356028 -12.58097188 28.67187588 -8 28 C-7.01 27.34 -6.02 26.68 -5 26 C-4.87634121 23.57434853 -4.87634121 23.57434853 -6 21 C-8.68147977 19.72524731 -11.06393094 18.79548716 -13.875 17.9375 C-21.43210345 15.56677423 -21.43210345 15.56677423 -23.9765625 13.02734375 C-25.60213265 9.80722578 -25.48951123 7.54895642 -25 4 C-19.20623314 -5.94485652 -9.09849327 -3.97025161 0 0 Z " fill="#101112" transform="translate(147,324)"/>
<path d="M0 0 C1.98 0 3.96 0 6 0 C6.33 0.99 6.66 1.98 7 3 C7.680625 2.505 8.36125 2.01 9.0625 1.5 C12.70247525 -0.35871077 14.95462873 -0.43343264 19 0 C22.82277449 1.69901089 24.4689836 3.14897715 26 7 C26.22705078 9.38183594 26.22705078 9.38183594 26.1953125 11.984375 C26.18886719 12.91894531 26.18242187 13.85351562 26.17578125 14.81640625 C26.15902344 15.78449219 26.14226562 16.75257813 26.125 17.75 C26.11597656 18.73355469 26.10695312 19.71710938 26.09765625 20.73046875 C26.07412785 23.15389407 26.04125368 25.57682222 26 28 C24.02 28 22.04 28 20 28 C19.98541748 27.44014404 19.97083496 26.88028809 19.95581055 26.3034668 C19.88128648 23.76411863 19.78464419 21.22607922 19.6875 18.6875 C19.66494141 17.80642578 19.64238281 16.92535156 19.61914062 16.01757812 C19.5659668 14.74624023 19.5659668 14.74624023 19.51171875 13.44921875 C19.48553467 12.66893311 19.45935059 11.88864746 19.43237305 11.0847168 C18.89233965 8.48090809 18.1491762 7.54337231 16 6 C12.42243314 5.99917465 12.42243314 5.99917465 9 7 C6.9859044 10.0211434 6.73163404 10.80660017 6.5859375 14.23046875 C6.54726562 15.03291016 6.50859375 15.83535156 6.46875 16.66210938 C6.4378125 17.49548828 6.406875 18.32886719 6.375 19.1875 C6.33632812 20.03248047 6.29765625 20.87746094 6.2578125 21.74804688 C6.16363721 23.83167524 6.08073325 25.91580753 6 28 C4.02 28 2.04 28 0 28 C0 18.76 0 9.52 0 0 Z " fill="#121417" transform="translate(185,330)"/>
<path d="M0 0 C1.65 0 3.3 0 5 0 C8.59434934 6.78932652 11.32365696 13.80458592 14 21 C14.23710693 20.39937744 14.47421387 19.79875488 14.71850586 19.17993164 C15.78882572 16.4730531 16.86310775 13.76776459 17.9375 11.0625 C18.49727539 9.64420898 18.49727539 9.64420898 19.06835938 8.19726562 C19.42607422 7.29814453 19.78378906 6.39902344 20.15234375 5.47265625 C20.48226318 4.64000244 20.81218262 3.80734863 21.15209961 2.94946289 C22 1 22 1 23 0 C24.66617115 -0.04063832 26.33388095 -0.042721 28 0 C26.99571438 6.20791355 24.35784744 11.83150203 21.96240234 17.60253906 C21.12619195 19.62212125 20.30301389 21.6466952 19.48046875 23.671875 C18.94870167 24.96126153 18.41617524 26.2503352 17.8828125 27.5390625 C17.40215332 28.70646973 16.92149414 29.87387695 16.42626953 31.07666016 C15.15715174 33.67789543 14.24690412 35.23122549 12 37 C8.37755263 38.10830525 5.05654842 38.39620566 1.5 37.0625 C0.7575 36.5365625 0.7575 36.5365625 0 36 C0.66 34.68 1.32 33.36 2 32 C3.134375 32.020625 4.26875 32.04125 5.4375 32.0625 C8.81575674 32.41577477 8.81575674 32.41577477 10 31 C9.6564557 24.48146711 7.10295958 19.13605316 4.4375 13.25 C3.59797179 11.38240006 2.76310925 9.51269369 1.93359375 7.640625 C1.56290771 6.82110352 1.19222168 6.00158203 0.81030273 5.15722656 C0 3 0 3 0 0 Z " fill="#111213" transform="translate(152,330)"/>
<path d="M0 0 C1.2375 0.495 1.2375 0.495 2.5 1 C2.17 2.65 1.84 4.3 1.5 6 C-2.79 5.34 -7.08 4.68 -11.5 4 C-11.5 5.65 -11.5 7.3 -11.5 9 C-10.75234375 9.15855469 -10.0046875 9.31710937 -9.234375 9.48046875 C-1.27461617 11.36622313 -1.27461617 11.36622313 2.25 14.25 C3.9588681 18.00950982 3.73245267 20.08515033 2.5 24 C-0.48927136 26.98927136 -3.37488393 27.22204006 -7.4375 27.375 C-11.77039387 27.2584199 -14.78445355 26.34666091 -18.5 24 C-18.17 22.68 -17.84 21.36 -17.5 20 C-16.93796875 20.15339844 -16.3759375 20.30679687 -15.796875 20.46484375 C-13.44161122 21.01360419 -11.15451896 21.31497599 -8.75 21.5625 C-7.95078125 21.64628906 -7.1515625 21.73007812 -6.328125 21.81640625 C-5.42320312 21.90728516 -5.42320312 21.90728516 -4.5 22 C-4.17 20.68 -3.84 19.36 -3.5 18 C-4.34304688 17.67386719 -5.18609375 17.34773438 -6.0546875 17.01171875 C-7.15039062 16.57472656 -8.24609375 16.13773437 -9.375 15.6875 C-10.46554687 15.25824219 -11.55609375 14.82898438 -12.6796875 14.38671875 C-15.5 13 -15.5 13 -17.5 10 C-17.875 7.0625 -17.875 7.0625 -17.5 4 C-12.66718271 -1.96047466 -7.01711384 -2.00488967 0 0 Z " fill="#131415" transform="translate(300.5,331)"/>
<path d="M0 0 C2.34040932 1.80367545 2.95598372 2.762858 3.50390625 5.71484375 C3.6613594 14.37476689 2.02461331 20.85802781 -3 28 C-7.20367336 32.14159379 -11.59515329 34.04138304 -17.44921875 34.31640625 C-18.29677734 34.35830078 -19.14433594 34.40019531 -20.01757812 34.44335938 C-20.89865234 34.48267578 -21.77972656 34.52199219 -22.6875 34.5625 C-23.58017578 34.60568359 -24.47285156 34.64886719 -25.39257812 34.69335938 C-27.59490108 34.79935353 -29.79733473 34.90142051 -32 35 C-32.13535156 35.78761719 -32.27070313 36.57523438 -32.41015625 37.38671875 C-33.05707825 40.25288309 -33.69083163 41.24503204 -36 43 C-36.66 43 -37.32 43 -38 43 C-38.226875 43.763125 -38.45375 44.52625 -38.6875 45.3125 C-40.26731682 48.54736301 -41.83282717 49.41641358 -45 51 C-45.495 49.515 -45.495 49.515 -46 48 C-44.35 47.34 -42.7 46.68 -41 46 C-41 45.34 -41 44.68 -41 44 C-42.65 44 -44.3 44 -46 44 C-43.48780847 40.2317127 -41.10318974 39.71587935 -37 38 C-35.58558126 35.17116253 -35.68099668 33.12623255 -36 30 C-37.46041766 27.88329643 -37.46041766 27.88329643 -40 27 C-43.62057268 26.99331283 -43.62057268 26.99331283 -47 28 C-47.66 28.99 -48.32 29.98 -49 31 C-50.32 30.67 -51.64 30.34 -53 30 C-51.52559727 25.33105802 -51.52559727 25.33105802 -49.1953125 23.86328125 C-45.45826013 22.39372863 -41.94081865 22.32618127 -38 23 C-35.29290206 24.38387288 -34.07802274 25.65556409 -32 28 C-32 29.32 -32 30.64 -32 32 C-28.78904711 31.77843074 -25.5824138 31.51765623 -22.375 31.25 C-21.47136719 31.188125 -20.56773437 31.12625 -19.63671875 31.0625 C-14.06273486 30.57426783 -10.3807575 29.77137856 -6 26 C-4.32807302 24.03940802 -4.32807302 24.03940802 -3.1875 21.9375 C-2.78917969 21.26589844 -2.39085937 20.59429687 -1.98046875 19.90234375 C-0.1380177 16.32754829 0.13564562 13.4601695 0.125 9.5 C0.12757813 8.5409375 0.13015625 7.581875 0.1328125 6.59375 C0.10992972 3.88428848 0.10992972 3.88428848 -1 1 C-0.67 0.67 -0.34 0.34 0 0 Z " fill="#818386" transform="translate(322,190)"/>
<path d="M0 0 C0.33 0.99 0.66 1.98 1 3 C4.00842394 3.92946829 7.0260417 4.4664345 10.1171875 5.05859375 C13.4109188 6.13418893 14.36247839 6.99506344 16 10 C16.43954887 14.13175938 16.10857469 17.38530053 14 21 C9.91139321 23.56998141 6.59119375 23.001715 2 22 C1.03126953 21.42378906 1.03126953 21.42378906 0.04296875 20.8359375 C-1.98658114 19.74771134 -1.98658114 19.74771134 -4.0703125 20.6796875 C-4.74835938 21.07414062 -5.42640625 21.46859375 -6.125 21.875 C-9.85430464 24 -9.85430464 24 -12 24 C-11.505 22.515 -11.505 22.515 -11 21 C-9.22265625 20.1484375 -9.22265625 20.1484375 -7.0625 19.375 C-4.40463126 18.1504819 -3.26196353 17.59160097 -2.0625 14.8828125 C-1.58080127 12.58721701 -1.26655034 10.32923993 -1 8 C-0.66894149 6.66610002 -0.33599003 5.33266635 0 4 C0 3.34 0 2.68 0 2 C-0.66 1.67 -1.32 1.34 -2 1 C-1.34 0.67 -0.68 0.34 0 0 Z " fill="#8E9092" transform="translate(308,172)"/>
<path d="M0 0 C1.32 0 2.64 0 4 0 C4.33 4.29 4.66 8.58 5 13 C6.32 12.01 7.64 11.02 9 10 C15.75655722 9.14202448 15.75655722 9.14202448 19.734375 11.88671875 C22.97433271 16.33886753 22.55840302 19.95938043 22.3125 25.3125 C22.28994141 26.24384766 22.26738281 27.17519531 22.24414062 28.13476562 C22.18542078 30.4248396 22.10336858 32.71157875 22 35 C20.68 35 19.36 35 18 35 C17.96261719 33.80761719 17.92523438 32.61523438 17.88671875 31.38671875 C17.82105968 29.820281 17.75461232 28.25387616 17.6875 26.6875 C17.66494141 25.90181641 17.64238281 25.11613281 17.61914062 24.30664062 C17.5659668 23.1706543 17.5659668 23.1706543 17.51171875 22.01171875 C17.48553467 21.31522217 17.45935059 20.61872559 17.43237305 19.90112305 C16.87360079 17.4442289 15.97888321 16.52596672 14 15 C11 14.41666667 11 14.41666667 8 15 C4.82454211 17.91900761 4.59050844 20.84608126 4.38085938 25.0390625 C4.35830078 25.76867187 4.33574219 26.49828125 4.3125 27.25 C4.27833984 27.99507813 4.24417969 28.74015625 4.20898438 29.5078125 C4.12685946 31.33802492 4.06174347 33.16898669 4 35 C2.68 35 1.36 35 0 35 C0 23.45 0 11.9 0 0 Z " fill="#09948E" transform="translate(353,322)"/>
<path d="M0 0 C1.18916016 0.01353516 1.18916016 0.01353516 2.40234375 0.02734375 C4.35169281 0.05082988 6.30088575 0.08669863 8.25 0.125 C11.2734375 5.8515625 11.2734375 5.8515625 11.0625 8.3125 C10.25 10.125 10.25 10.125 8.25 13.125 C6.29838399 13.15807824 4.34376838 13.17607078 2.39453125 13.07421875 C-0.04379387 13.00910774 -0.04379387 13.00910774 -3.25 14.5 C-6.75 15.125 -6.75 15.125 -8.96484375 13.921875 C-10.98449601 12.40269896 -12.89023883 10.83501416 -14.75 9.125 C-13.2899449 2.55475207 -13.2899449 2.55475207 -11.21875 0.90625 C-7.48901364 -0.27404632 -3.88439391 -0.08374315 0 0 Z " fill="#F4FBFB" transform="translate(242.75,147.875)"/>
<path d="M0 0 C1.9375 1.125 1.9375 1.125 3 3 C3.63074205 8.8869258 3.63074205 8.8869258 1.9375 11.875 C-0.92113133 13.53485045 -3.74739303 13.69315029 -7 14 C-7.268125 14.804375 -7.53625 15.60875 -7.8125 16.4375 C-8.204375 17.283125 -8.59625 18.12875 -9 19 C-9.99 19.33 -10.98 19.66 -12 20 C-11.4740625 18.88625 -11.4740625 18.88625 -10.9375 17.75 C-9.91312664 14.74517149 -10.00037093 13.90801184 -11 11 C-11.34428141 9.33556039 -11.67881752 7.66905084 -12 6 C-14.70860124 6.14176421 -17.41680752 6.28828216 -20.125 6.4375 C-20.88554687 6.47681641 -21.64609375 6.51613281 -22.4296875 6.55664062 C-26.68509203 6.79509002 -30.80370826 7.20230237 -35 8 C-35 7.34 -35 6.68 -35 6 C-26.70657278 2.70615657 -19.75691581 2.20370958 -11 4 C-10.71125 3.360625 -10.4225 2.72125 -10.125 2.0625 C-7.74103666 -2.30809946 -4.32230822 -0.90995963 0 0 Z " fill="#0C7579" transform="translate(263,142)"/>
<path d="M0 0 C2.91368224 1.98378365 4.63558769 3.41448681 5.4453125 6.9375 C5.65106793 10.55879549 5.13710396 12.72579208 3.5 16 C0.63866763 18.28906589 -1.36602972 18.73368112 -5.02734375 18.48046875 C-8.55479057 17.62130844 -10.00100675 15.93602134 -12 13 C-12.51521375 8.80468804 -12.47609387 5.51865971 -10 2 C-6.24952518 -0.50031654 -4.44143734 -0.53603554 0 0 Z " fill="#F7F7F7" transform="translate(267,335)"/>
<path d="M0 0 C4.15757553 1.59906751 6.7122114 3.14688235 9 7 C10.67009208 12.01027625 10.57792698 16.33043317 8.875 21.25 C6.56113855 24.64366345 4.69440942 26.18764821 1 28 C-1.86153148 28.42629892 -4.06890083 28.29310992 -7 28 C-7.66 27.34 -8.32 26.68 -9 26 C-8.34 26 -7.68 26 -7 26 C-7 25.34 -7 24.68 -7 24 C-7.66 23.67 -8.32 23.34 -9 23 C-8.38511719 22.97421875 -7.77023437 22.9484375 -7.13671875 22.921875 C-2.20194115 22.65513214 -2.20194115 22.65513214 2.0625 20.4375 C3.42975449 16.88263833 3.66135583 13.75280985 3 10 C1.73061576 7.31379818 1.73061576 7.31379818 -1 6 C-4.03116605 5.6869708 -6.96535839 5.76656603 -10 6 C-9.625 3.5625 -9.625 3.5625 -9 1 C-5.92805092 -0.53597454 -3.39755707 -0.2265038 0 0 Z " fill="#0E0F11" transform="translate(268,330)"/>
<path d="M0 0 C4.4878025 0.51289171 6.5446937 2.20284728 10 5 C11.19625 5.495 12.3925 5.99 13.625 6.5 C17.14021637 8.06231839 18.16735054 8.72942558 20 12 C20.07421875 14.796875 20.07421875 14.796875 19.6875 17.75 C19.56761719 18.73484375 19.44773437 19.7196875 19.32421875 20.734375 C19.21722656 21.48203125 19.11023438 22.2296875 19 23 C18.34 23 17.68 23 17 23 C16.67 22.34 16.34 21.68 16 21 C15.34 21 14.68 21 14 21 C14 21.66 14 22.32 14 23 C7.61802233 22.51834131 7.61802233 22.51834131 5.0625 20.375 C3.577727 17.05609564 3.61465515 14.59655194 4 11 C5.5 8.5625 5.5 8.5625 7 7 C3.67913229 4.22999175 3.67913229 4.22999175 0 2 C0 1.34 0 0.68 0 0 Z " fill="#93969A" transform="translate(292,152)"/>
<path d="M0 0 C0.99 0.99 1.98 1.98 3 3 C2.67 3.33 2.34 3.66 2 4 C1.87504615 6.81146169 1.76849478 9.2701117 2.62475586 11.96972656 C3.10857374 14.58744255 2.52947079 15.44632039 1.12890625 17.671875 C0.51499023 18.66767578 0.51499023 18.66767578 -0.11132812 19.68359375 C-0.7677832 20.70646484 -0.7677832 20.70646484 -1.4375 21.75 C-1.87126953 22.44738281 -2.30503906 23.14476562 -2.75195312 23.86328125 C-3.82352027 25.58249886 -4.91032356 27.292203 -6 29 C-8.31 28.67 -10.62 28.34 -13 28 C-12.98699878 23.92411679 -12.82199188 19.99930663 -12 16 C-9.125 13.375 -9.125 13.375 -6 11 C-4.9916613 8.39066639 -4.33230271 5.84106551 -3.73828125 3.109375 C-3.49464844 2.41328125 -3.25101563 1.7171875 -3 1 C-2.01 0.67 -1.02 0.34 0 0 Z " fill="#F6F6F6" transform="translate(247,245)"/>
<path d="M0 0 C0.66 0 1.32 0 2 0 C2.33 1.65 2.66 3.3 3 5 C4.6396875 4.6596875 4.6396875 4.6596875 6.3125 4.3125 C10 4 10 4 11.875 5.0625 C13.37532687 7.64639628 13.67264472 10.05380252 14 13 C15.134375 13.268125 16.26875 13.53625 17.4375 13.8125 C19.2009375 14.4003125 19.2009375 14.4003125 21 15 C21.33 15.99 21.66 16.98 22 18 C21.31292969 17.84402344 20.62585938 17.68804687 19.91796875 17.52734375 C19.01691406 17.33269531 18.11585938 17.13804687 17.1875 16.9375 C15.84751953 16.64166016 15.84751953 16.64166016 14.48046875 16.33984375 C11.87369221 15.79650537 11.87369221 15.79650537 9 17 C10.92391649 22.31411494 10.92391649 22.31411494 15 26 C16.19625 26.165 17.3925 26.33 18.625 26.5 C19.73875 26.665 20.8525 26.83 22 27 C22.33 27.66 22.66 28.32 23 29 C18.78875012 29.24772058 15.1197503 29.41382076 11.125 27.9375 C8.25432162 25.32011677 7.25643917 22.63706075 6 19 C6 18.34 6 17.68 6 17 C5.360625 16.690625 4.72125 16.38125 4.0625 16.0625 C2 15 2 15 1 14 C1 12.04814929 1.00311814 10.09617922 1.03125 8.14453125 C0.99074063 5.3645758 0.54434848 2.7217424 0 0 Z " fill="#182B30" transform="translate(190,225)"/>
<path d="M0 0 C0.99 0.33 1.98 0.66 3 1 C3.2990625 1.66 3.598125 2.32 3.90625 3 C4.81526825 5.20372413 4.81526825 5.20372413 7.09375 5.6875 C7.8878125 5.790625 8.681875 5.89375 9.5 6 C11.90625 6.3125 11.90625 6.3125 14 7 C16.22493905 10.30641097 16.41031331 13.06099219 16 17 C14.9375 19.3125 14.9375 19.3125 13 21 C8.91964404 22.20899436 6.93532871 22.48799759 3.125 20.5 C0.37754869 17.26770434 0.07386252 15.21016336 0 11 C0.6469365 9.3255761 1.30959426 7.65697379 2 6 C1.34 5.01 0.68 4.02 0 3 C0 2.01 0 1.02 0 0 Z " fill="#1EA7A7" transform="translate(281,185)"/>
<path d="M0 0 C0.99 0.33 1.98 0.66 3 1 C9.08568662 1.23294845 9.08568662 1.23294845 15 0 C14.67 0.70125 14.34 1.4025 14 2.125 C12.81148807 4.97558556 12.81148807 4.97558556 13.125 8.0625 C13 11 13 11 11.375 13.3125 C9 15 9 15 6.15625 15.1015625 C2.57280584 16.1216023 2.28744114 16.55766675 0.4453125 19.59765625 C-0.34947913 21.07464403 -1.12234951 22.56359911 -1.875 24.0625 C-2.2771875 24.82111328 -2.679375 25.57972656 -3.09375 26.36132812 C-4.08148868 28.23097635 -5.04331723 30.11427196 -6 32 C-6.33 32 -6.66 32 -7 32 C-6.7839149 27.03004274 -5.69034948 24.31276902 -2.875 20.1875 C0.14395489 15.48338027 0.33970085 12.62410124 -0.6328125 7.20703125 C-1.06691859 4.59777658 -0.75745051 2.52483504 0 0 Z " fill="#535B60" transform="translate(249,244)"/>
<path d="M0 0 C1.9375 1.1875 1.9375 1.1875 3 3 C3.70541917 7.0561602 3.32120577 8.54252512 0.9375 11.9375 C-2 14 -2 14 -5.625 14.0625 C-9 13 -9 13 -11 11.375 C-12.46981805 7.88418213 -11.98413921 5.60851044 -11 2 C-7.79952331 -1.93904824 -4.62362797 -1.17692348 0 0 Z " fill="#F9FAFA" transform="translate(284,217)"/>
<path d="M0 0 C2.375 1.5625 2.375 1.5625 4 4 C4.5 7.5625 4.5 7.5625 4 11 C2.4375 12.9375 2.4375 12.9375 0 14 C-5.87272727 14.61818182 -5.87272727 14.61818182 -8.9375 12.9375 C-10.63902633 9.8347167 -10.42519574 7.46230815 -10 4 C-7.26646839 -0.10029741 -4.80388991 -0.80064832 0 0 Z " fill="#F1FCFB" transform="translate(248,164)"/>
<path d="M0 0 C1.9375 1 1.9375 1 3 3 C3.46000079 5.76000474 3.50420748 8.24404774 3 11 C1.4375 13.0625 1.4375 13.0625 -1 14 C-4.78958606 13.93351603 -7.07857591 13.83225402 -9.9375 11.25 C-11.23370853 8.50508782 -11.52487013 6.99925788 -11 4 C-7.99829475 -0.44252378 -5.15110438 -0.6555951 0 0 Z " fill="#F9F9F9" transform="translate(226,242)"/>
<path d="M0 0 C2.27605184 2.12431505 2.90218604 3.44106306 3.4375 6.5 C2.84278924 9.89834723 1.79734842 11.01241034 -1 13 C-4 13.5625 -4 13.5625 -7 13 C-9.4375 10.875 -9.4375 10.875 -11 8 C-11 4.45665039 -10.64741834 2.74333217 -8.3125 0.0625 C-5.10056066 -1.41325591 -3.33525198 -1.06444212 0 0 Z " fill="#F0F3F3" transform="translate(200,209)"/>
<path d="M0 0 C0.66 0.66 1.32 1.32 2 2 C0.63875 3.11375 0.63875 3.11375 -0.75 4.25 C-1.56597656 4.94222656 -1.56597656 4.94222656 -2.3984375 5.6484375 C-3.702963 6.74932975 -5.03522775 7.81728507 -6.375 8.875 C-8.73239453 11.95774669 -8.33245354 14.21002964 -8 18 C-7.71479595 19.67557379 -7.40044304 21.34817245 -7 23 C-4.36 23 -1.72 23 1 23 C0.67 23.99 0.34 24.98 0 26 C-1.155 26.433125 -2.31 26.86625 -3.5 27.3125 C-7.24869222 28.61712401 -7.24869222 28.61712401 -8.0625 31.9375 C-8.00041345 34.97974074 -7.6442143 36.48531931 -6 39 C-7.98 39.495 -7.98 39.495 -10 40 C-11.99825961 37.00261059 -12.27550398 36.36652492 -12.25 33 C-12.25515625 32.319375 -12.2603125 31.63875 -12.265625 30.9375 C-12 29 -12 29 -10 26 C-10.30185427 23.04182816 -10.66718829 20.66562342 -12 18 C-12.51206902 13.56206849 -12.38510517 11.57765776 -9.875 7.8125 C-7.25665409 5.01461037 -4.26344655 3.00256948 -1 1 C-0.67 0.67 -0.34 0.34 0 0 Z " fill="#172E2E" transform="translate(198,182)"/>
<path d="M0 0 C1.32 0 2.64 0 4 0 C4.33 1.32 4.66 2.64 5 4 C5.556875 3.34 6.11375 2.68 6.6875 2 C9 0 9 0 11.75 -0.25 C12.4925 -0.1675 13.235 -0.085 14 0 C14 1.32 14 2.64 14 4 C12.88625 4.433125 11.7725 4.86625 10.625 5.3125 C6.82487666 6.69911119 6.82487666 6.69911119 5 10 C4.70008931 12.58885171 4.49134775 15.09149082 4.375 17.6875 C4.33632813 18.38939453 4.29765625 19.09128906 4.2578125 19.81445312 C4.1637666 21.54254655 4.0808032 23.27123675 4 25 C2.68 25 1.36 25 0 25 C0 16.75 0 8.5 0 0 Z " fill="#07928C" transform="translate(383,332)"/>
<path d="M0 0 C1.88138672 0.05414063 1.88138672 0.05414063 3.80078125 0.109375 C5.22970703 0.17898438 5.22970703 0.17898438 6.6875 0.25 C6.6875 1.24 6.6875 2.23 6.6875 3.25 C5.65689453 3.32347656 5.65689453 3.32347656 4.60546875 3.3984375 C3.25388672 3.51058594 3.25388672 3.51058594 1.875 3.625 C0.98167969 3.69460938 0.08835938 3.76421875 -0.83203125 3.8359375 C-3.55648499 4.11645036 -3.55648499 4.11645036 -6.3125 6.25 C-6.56280977 8.83380177 -6.56280977 8.83380177 -6.3125 11.25 C-3.3425 11.58 -0.3725 11.91 2.6875 12.25 C0.7075 13.24 0.7075 13.24 -1.3125 14.25 C0.3375 14.25 1.9875 14.25 3.6875 14.25 C1.31709692 16.62040308 0.62447247 16.59465793 -2.625 16.6875 C-6.24431925 16.59409821 -7.23807203 16.30012496 -10.375 14.1875 C-12.81522587 10.48780272 -13.10332445 8.5995345 -12.3125 4.25 C-8.40861321 0.12638225 -5.55418203 -0.20763297 0 0 Z " fill="#090A0B" transform="translate(229.3125,341.75)"/>
<path d="M0 0 C1.87971032 1.7857248 3.35781256 3.50093759 4.875 5.625 C7.32334684 8.36138765 8.46645999 8.53506053 12 9 C14 11 14 11 14.3125 13.9375 C14 17 14 17 12.875 18.875 C10.15781176 20.50531294 8.10347254 20.33015665 5 20 C3 18 3 18 2.9453125 16.046875 C3.00460938 15.28890625 3.06390625 14.5309375 3.125 13.75 C3.26899766 9.03597133 1.80688069 6.80287062 -1 3 C-0.67 2.01 -0.34 1.02 0 0 Z " fill="#0D504F" transform="translate(252,179)"/>
<path d="M0 0 C2 2 2 2 2.3125 5.4375 C2 9 2 9 0.875 10.9375 C-1.88980433 12.50422245 -3.88188517 12.38976435 -7 12 C-8.875 10.9375 -8.875 10.9375 -10 9 C-10.36841966 5.56141649 -10.58367385 3.09868019 -8.9375 0 C-5.80557344 -1.61647822 -3.32814714 -0.78665296 0 0 Z " fill="#FAFAFA" transform="translate(319,180)"/>
<path d="M0 0 C2.34040932 1.80367545 2.95598372 2.762858 3.50390625 5.71484375 C3.6613594 14.37476689 2.02461331 20.85802781 -3 28 C-7.12657286 32.06563191 -11.43198622 34.13878024 -17.23046875 34.09765625 C-18.03291016 34.09443359 -18.83535156 34.09121094 -19.66210938 34.08789062 C-20.49548828 34.07951172 -21.32886719 34.07113281 -22.1875 34.0625 C-23.4549707 34.05573242 -23.4549707 34.05573242 -24.74804688 34.04882812 C-26.83206155 34.03705403 -28.91603977 34.0191189 -31 34 C-31 33.34 -31 32.68 -31 32 C-29.69804687 31.90203125 -28.39609375 31.8040625 -27.0546875 31.703125 C-25.32804659 31.55298231 -23.60148804 31.40189044 -21.875 31.25 C-21.0190625 31.188125 -20.163125 31.12625 -19.28125 31.0625 C-13.83856538 30.56009834 -10.2943785 29.6518608 -6 26 C-4.32807302 24.03940802 -4.32807302 24.03940802 -3.1875 21.9375 C-2.59001953 20.93009766 -2.59001953 20.93009766 -1.98046875 19.90234375 C-0.1380177 16.32754829 0.13564562 13.4601695 0.125 9.5 C0.12757813 8.5409375 0.13015625 7.581875 0.1328125 6.59375 C0.10992972 3.88428848 0.10992972 3.88428848 -1 1 C-0.67 0.67 -0.34 0.34 0 0 Z " fill="#535A5F" transform="translate(322,190)"/>
<path d="M0 0 C3.11252096 0.96339934 5.16325427 1.63209664 7.625 3.8125 C8.06684367 6.60716123 7.85900073 8.95769114 7.625 11.8125 C3.64497685 12.12465868 1.2684352 12.17618076 -2.25 10.1875 C-4.77126084 7.36962024 -5.12124791 5.53419726 -5.375 1.8125 C-2.375 -0.1875 -2.375 -0.1875 0 0 Z " fill="#F3F4F3" transform="translate(204.375,240.1875)"/>
<path d="M0 0 C0.90105469 0.01804687 1.80210937 0.03609375 2.73046875 0.0546875 C3.41753906 0.07789063 4.10460937 0.10109375 4.8125 0.125 C4.5 3.5 4.5 3.5 3.8125 7.125 C0.11763897 9.58824069 -1.82043092 9.51491688 -6.1875 9.125 C-8.1875 7.875 -8.1875 7.875 -9.1875 6.125 C-9.0625 4.0625 -9.0625 4.0625 -8.1875 2.125 C-4.87379 -0.08414 -3.8428979 -0.09981553 0 0 Z " fill="#EEEFEF" transform="translate(231.1875,344.875)"/>
<path d="M0 0 C3.5 0.1875 3.5 0.1875 7 1 C9 4 9 4 8.75 6.5625 C8 9 8 9 6 11 C2.8695827 11.33302312 0.82101702 11.47671956 -1.9375 9.875 C-3 8 -3 8 -2.8125 4.9375 C-2 2 -2 2 0 0 Z " fill="#F5F6F5" transform="translate(241,232)"/>
<path d="M0 0 C1.98 0 3.96 0 6 0 C6 1.65 6 3.3 6 5 C5.67 4.01 5.34 3.02 5 2 C4.01 2 3.02 2 2 2 C2 13.22 2 24.44 2 36 C2.99 36 3.98 36 5 36 C5 31.71 5 27.42 5 23 C5.33 23 5.66 23 6 23 C6 27.62 6 32.24 6 37 C4.02 37 2.04 37 0 37 C0 24.79 0 12.58 0 0 Z " fill="#262728" transform="translate(249,330)"/>
<path d="M0 0 C-0.40293386 5.64107398 -2.05724462 8.14685269 -6 12 C-8.6875 13 -8.6875 13 -11 13 C-11.66 12.34 -12.32 11.68 -13 11 C-12.525625 10.46375 -12.05125 9.9275 -11.5625 9.375 C-9.77664314 7.02988252 -9.77664314 7.02988252 -9.5625 3.875 C-9 1 -9 1 -7.25 -0.4375 C-4.51778598 -1.1205535 -2.68973228 -0.74714785 0 0 Z " fill="#F2F3F3" transform="translate(242,246)"/>
<path d="M0 0 C3 0.25 3 0.25 5 2.25 C5.33302312 5.3804173 5.47671956 7.42898298 3.875 10.1875 C2 11.25 2 11.25 -1.0625 11.125 C-4 10.25 -4 10.25 -6 7.25 C-5.5601518 2.74155593 -4.87125629 0.40593802 0 0 Z " fill="#FAFAFA" transform="translate(284,148.75)"/>
<path d="M0 0 C0.99 0.33 1.98 0.66 3 1 C3.2475 2.093125 3.495 3.18625 3.75 4.3125 C5.06703244 8.1977457 5.29605688 8.57917432 8.625 10.4375 C10.295625 11.2109375 10.295625 11.2109375 12 12 C12 13.32 12 14.64 12 16 C8.38854512 18.97413931 5.5894956 19.32019737 1 19 C1.495 18.1028125 1.495 18.1028125 2 17.1875 C3.20787988 14.94613529 3.20787988 14.94613529 3 12 C2.505 11.443125 2.01 10.88625 1.5 10.3125 C-0.7449015 6.85161019 -0.20378728 4.07574551 0 0 Z " fill="#7B7E82" transform="translate(269,220)"/>
<path d="M0 0 C1.94140625 0.39453125 1.94140625 0.39453125 4.44140625 2.76953125 C5.94140625 5.39453125 5.94140625 5.39453125 5.94140625 7.39453125 C0.66140625 7.39453125 -4.61859375 7.39453125 -10.05859375 7.39453125 C-9.72859375 5.74453125 -9.39859375 4.09453125 -9.05859375 2.39453125 C-5.84403305 0.25149079 -3.82930959 -0.07757349 0 0 Z " fill="#F8F8F8" transform="translate(324.05859375,334.60546875)"/>
<path d="M0 0 C11.34038664 1.17490492 23.92525509 3.77724384 33 11 C34.19140625 13.15234375 34.19140625 13.15234375 35 15 C32.2539209 14.59317347 31.03777433 14.0339754 28.94140625 12.1484375 C25.07248192 9.32252995 21.18628801 8.20949448 16.625 6.875 C15.8 6.62363281 14.975 6.37226563 14.125 6.11328125 C9.43158073 4.69035573 4.71893124 3.33554658 0 2 C0 1.34 0 0.68 0 0 Z " fill="#0C2E29" transform="translate(238,200)"/>
<path d="M0 0 C1.43861294 0.08746284 2.87597508 0.19565348 4.3125 0.3125 C5.11300781 0.37050781 5.91351563 0.42851562 6.73828125 0.48828125 C9.36272334 1.08206694 10.30820672 1.95780294 12 4 C10.5625 6.5 10.5625 6.5 8 9 C4.95743422 9.4451258 2.0534135 9.29359745 -1 9 C-2.25541557 5.23375329 -1.37061958 3.62811066 0 0 Z " fill="#F4F4F4" transform="translate(252,237)"/>
<path d="M0 0 C0.66 0.66 1.32 1.32 2 2 C0.68 3.65 -0.64 5.3 -2 7 C-0.02 7 1.96 7 4 7 C4.33 7.66 4.66 8.32 5 9 C4.30132812 9.04898438 3.60265625 9.09796875 2.8828125 9.1484375 C1.97273438 9.22320312 1.06265625 9.29796875 0.125 9.375 C-0.77992188 9.44460937 -1.68484375 9.51421875 -2.6171875 9.5859375 C-5.17941903 9.79568132 -5.17941903 9.79568132 -7 12 C-9.125 11.625 -9.125 11.625 -11 11 C-10.34 10.01 -9.68 9.02 -9 8 C-12.65079826 6.38935371 -16.0507432 5.55105909 -20 5 C-20 4.67 -20 4.34 -20 4 C-15.72512149 3.10940031 -13.03467489 2.84235336 -8.875 4.25 C-7.59625 4.4975 -6.3175 4.745 -5 5 C-1.95524698 2.79086457 -1.95524698 2.79086457 0 0 Z " fill="#61676A" transform="translate(272,232)"/>
<path d="M0 0 C0.99 0.33 1.98 0.66 3 1 C3.59865471 6.98654709 3.59865471 6.98654709 1.95703125 9.765625 C0.16141815 11.93510476 -1.46143928 13.73071964 -4 15 C-6.3329866 15.04022391 -8.66706666 15.04320247 -11 15 C-11.33 14.01 -11.66 13.02 -12 12 C-11.38511719 11.88785156 -10.77023438 11.77570313 -10.13671875 11.66015625 C-7.4922934 11.01486585 -5.36638648 10.35941351 -3 9 C-1.34440765 6.11804295 -0.59385959 3.2559888 0 0 Z " fill="#159C9C" transform="translate(253,167)"/>
<path d="M0 0 C0 0.66 0 1.32 0 2 C-1.2065625 2.6496875 -1.2065625 2.6496875 -2.4375 3.3125 C-5.16765332 4.75839619 -5.16765332 4.75839619 -5.9375 7.375 C-6.00942863 10.39600253 -5.31075943 12.30137765 -4 15 C-5.32 14.67 -6.64 14.34 -8 14 C-8.33 11.69 -8.66 9.38 -9 7 C-10.093125 6.855625 -11.18625 6.71125 -12.3125 6.5625 C-16 6 -16 6 -19 5 C-18.67 4.01 -18.34 3.02 -18 2 C-17.32453125 2.10699219 -16.6490625 2.21398437 -15.953125 2.32421875 C-15.06109375 2.44410156 -14.1690625 2.56398437 -13.25 2.6875 C-11.92742187 2.87892578 -11.92742187 2.87892578 -10.578125 3.07421875 C-6.10362546 2.9454074 -4.81245278 0 0 0 Z " fill="#929599" transform="translate(285,146)"/>
<path d="M0 0 C3 3 3 3 3.34057617 5.26831055 C3.32486572 6.13238525 3.30915527 6.99645996 3.29296875 7.88671875 C3.28330078 8.82451172 3.27363281 9.76230469 3.26367188 10.72851562 C3.23853516 11.70498047 3.21339844 12.68144531 3.1875 13.6875 C3.17396484 14.67556641 3.16042969 15.66363281 3.14648438 16.68164062 C3.11112203 19.12164231 3.06177033 21.56054719 3 24 C1.02 24 -0.96 24 -3 24 C-3 17.4 -3 10.8 -3 4 C-2.67 4 -2.34 4 -2 4 C-2 9.94 -2 15.88 -2 22 C-1.01 22 -0.02 22 1 22 C0.67 14.74 0.34 7.48 0 0 Z " fill="#1F2021" transform="translate(208,334)"/>
<path d="M0 0 C-0.33 0.99 -0.66 1.98 -1 3 C-2.155 3.433125 -3.31 3.86625 -4.5 4.3125 C-8.24869222 5.61712401 -8.24869222 5.61712401 -9.0625 8.9375 C-9.00041345 11.97974074 -8.6442143 13.48531931 -7 16 C-8.32 16.33 -9.64 16.66 -11 17 C-13.46442456 13.30336316 -13.56330335 10.28977165 -13 6 C-10.04781617 0.39085073 -5.99379164 -0.27244507 0 0 Z " fill="#061718" transform="translate(199,205)"/>
<path d="M0 0 C2.5 0.25 2.5 0.25 4.5 2.25 C4.625 5.375 4.625 5.375 4.5 8.25 C1.43109813 9.78445094 -1.20094266 8.79984289 -4.5 8.25 C-4.625 5.375 -4.625 5.375 -4.5 2.25 C-2.5 0.25 -2.5 0.25 0 0 Z " fill="#104142" transform="translate(211.5,195.75)"/>
<path d="M0 0 C0.99 0.33 1.98 0.66 3 1 C2.1875 2.9375 2.1875 2.9375 1 5 C0.01 5.33 -0.98 5.66 -2 6 C-2.28875 6.78375 -2.5775 7.5675 -2.875 8.375 C-4.28156667 11.6569889 -5.86843996 12.43421998 -9 14 C-9.33 13.01 -9.66 12.02 -10 11 C-8.35 10.34 -6.7 9.68 -5 9 C-5 8.34 -5 7.68 -5 7 C-6.65 7 -8.3 7 -10 7 C-7.48725447 3.2308817 -5.13200244 2.65280098 -1 1 C-0.67 0.67 -0.34 0.34 0 0 Z " fill="#7A7E82" transform="translate(286,227)"/>
<path d="M0 0 C0.33 1.32 0.66 2.64 1 4 C-2.85756507 6.15305957 -5.55129785 7.39253254 -10 7 C-10.33 7.66 -10.66 8.32 -11 9 C-11 8.01 -11 7.02 -11 6 C-11.66 6 -12.32 6 -13 6 C-13.33 4.68 -13.66 3.36 -14 2 C-12.98679688 2.03480469 -12.98679688 2.03480469 -11.953125 2.0703125 C-11.06109375 2.08835938 -10.1690625 2.10640625 -9.25 2.125 C-8.36828125 2.14820313 -7.4865625 2.17140625 -6.578125 2.1953125 C-3.8864142 1.99139502 -2.30095026 1.36551721 0 0 Z " fill="#233738" transform="translate(203,219)"/>
<path d="M0 0 C3 2 3 2 4.25 5.5 C5.66924469 9.35900163 5.66924469 9.35900163 9.625 10.25 C10.73875 10.4975 11.8525 10.745 13 11 C13.33 11.99 13.66 12.98 14 14 C6.76813075 14.49029622 6.76813075 14.49029622 3.0625 12.125 C0.98776946 9.98739884 0.05104066 9.01672997 -0.09765625 6.0546875 C-0.06510417 4.03645833 -0.03255208 2.01822917 0 0 Z " fill="#414C4F" transform="translate(212,245)"/>
<path d="M0 0 C2.64 0.99 5.28 1.98 8 3 C8 3.33 8 3.66 8 4 C6.02 4.66 4.04 5.32 2 6 C1.14349347 8.80045046 1.14349347 8.80045046 1 12 C2.81287195 14.39795381 2.81287195 14.39795381 5 16 C3.68 16.33 2.36 16.66 1 17 C-1.41919122 14.48000914 -1.98495638 13.16247108 -2.3125 9.625 C-2.00840654 6.09751583 -1.28247968 3.28635418 0 0 Z " fill="#656B6F" transform="translate(238,228)"/>
<path d="M0 0 C2.10209857 3.15314785 2.2434761 3.86103081 2.1953125 7.44921875 C2.18886719 8.29677734 2.18242187 9.14433594 2.17578125 10.01757812 C2.15902344 10.89865234 2.14226562 11.77972656 2.125 12.6875 C2.11597656 13.58017578 2.10695312 14.47285156 2.09765625 15.39257812 C2.07409748 17.59532314 2.04120329 19.79752588 2 22 C0.02 22 -1.96 22 -4 22 C-3.505 20.515 -3.505 20.515 -3 19 C-2.01 19.33 -1.02 19.66 0 20 C0 13.4 0 6.8 0 0 Z " fill="#363838" transform="translate(240,336)"/>
<path d="M0 0 C3 1 3 1 4.5 3.9375 C4.995 4.948125 5.49 5.95875 6 7 C8.91216721 9.25619542 8.91216721 9.25619542 12.625 9.5 C13.73875 9.665 14.8525 9.83 16 10 C16.33 10.66 16.66 11.32 17 12 C12.78875012 12.24772058 9.1197503 12.41382076 5.125 10.9375 C2.25432162 8.32011677 1.25643917 5.63706075 0 2 C0 1.34 0 0.68 0 0 Z " fill="#0D1C20" transform="translate(196,242)"/>
<path d="M0 0 C0.33 0.99 0.66 1.98 1 3 C1.66 3 2.32 3 3 3 C4 6 4 6 2.75 8.5625 C1 11 1 11 -2 13 C-5.6875 12.125 -5.6875 12.125 -9 11 C-9 10.67 -9 10.34 -9 10 C-7.35 10 -5.7 10 -4 10 C-4 9.34 -4 8.68 -4 8 C-3.01 7.34 -2.02 6.68 -1 6 C-0.26656572 2.93443402 -0.26656572 2.93443402 0 0 Z " fill="#4F595D" transform="translate(229,247)"/>
<path d="M0 0 C0.33 0 0.66 0 1 0 C1.19355538 4.16144068 1.12847118 7.35119226 -1 11 C-4.37157936 12.91359909 -7.16517886 13.21913264 -11 13 C-11.33 12.34 -11.66 11.68 -12 11 C-11.16855469 10.77957031 -11.16855469 10.77957031 -10.3203125 10.5546875 C-8.06408869 9.85614134 -6.06574368 9.15091434 -4 8 C-2.40004618 4.95978632 -2.40004618 4.95978632 -2 2 C-1.34 2 -0.68 2 0 2 C0 1.34 0 0.68 0 0 Z " fill="#929497" transform="translate(323,182)"/>
<path d="M0 0 C1.48046875 1.1015625 1.48046875 1.1015625 3 3 C3.36328125 5.9609375 3.36328125 5.9609375 3.3125 9.375 C3.30863281 10.49648437 3.30476563 11.61796875 3.30078125 12.7734375 C3.00825742 15.91142036 2.33267928 18.16473811 1 21 C0.01 20.67 -0.98 20.34 -2 20 C-1.67386719 19.29101562 -1.34773438 18.58203125 -1.01171875 17.8515625 C0.06470065 14.81763908 0.23604195 12.57876896 0.1875 9.375 C0.18105469 8.43398437 0.17460937 7.49296875 0.16796875 6.5234375 C0.09828658 3.87399088 0.09828658 3.87399088 -1 1 C-0.67 0.67 -0.34 0.34 0 0 Z " fill="#646A6E" transform="translate(322,190)"/>
<path d="M0 0 C0.66 0 1.32 0 2 0 C0.6510689 4.51451314 -1.16618294 8.32277281 -3.5625 12.375 C-4.18253906 13.43460937 -4.80257812 14.49421875 -5.44140625 15.5859375 C-5.95574219 16.38257813 -6.47007812 17.17921875 -7 18 C-7.33 18 -7.66 18 -8 18 C-7.84176499 10.87942468 -4.32702752 5.52620374 0 0 Z " fill="#454F55" transform="translate(250,258)"/>
<path d="M0 0 C0 0.99 0 1.98 0 3 C-5.00932754 6.00559652 -8.32723489 6.29341888 -14 6 C-14 5.67 -14 5.34 -14 5 C-11.69 5 -9.38 5 -7 5 C-7.33 3.68 -7.66 2.36 -8 1 C-4.93251126 -0.86240388 -3.40254489 -1.2151946 0 0 Z " fill="#0C0E0F" transform="translate(333,352)"/>
<path d="M0 0 C3.625 0.375 3.625 0.375 7 1 C7 1.66 7 2.32 7 3 C3.28026121 5.84450614 0.62609198 6.3227506 -4 6 C-2.84826645 3.53199953 -1.95216435 1.95216435 0 0 Z " fill="#EBECED" transform="translate(274,233)"/>
<path d="M0 0 C2.31 0 4.62 0 7 0 C7.33 0.66 7.66 1.32 8 2 C6.02 2.66 4.04 3.32 2 4 C2 5.65 2 7.3 2 9 C1.67 8.34 1.34 7.68 1 7 C0.34 7 -0.32 7 -1 7 C-1.33 5.35 -1.66 3.7 -2 2 C-1.34 2 -0.68 2 0 2 C0 1.34 0 0.68 0 0 Z " fill="#4A5257" transform="translate(231,243)"/>
<path d="M0 0 C2.125 0.375 2.125 0.375 4 1 C4 2.65 4 4.3 4 6 C2.35 6.33 0.7 6.66 -1 7 C-1.625 4.625 -1.625 4.625 -2 2 C-1.34 1.34 -0.68 0.68 0 0 Z " fill="#119690" transform="translate(342,351)"/>
<path d="M0 0 C2.875 0.25 2.875 0.25 6 1 C7.4375 2.875 7.4375 2.875 8 5 C7 8 7 8 5 9 C4.62875 8.1028125 4.62875 8.1028125 4.25 7.1875 C2.83629988 4.71352479 1.34944617 3.56629745 -1 2 C-0.67 1.34 -0.34 0.68 0 0 Z " fill="#159998" transform="translate(247,161)"/>
<path d="M0 0 C-2.42604752 2.42604752 -4.14192776 2.75843519 -7.4375 3.625 C-8.40558594 3.88539063 -9.37367188 4.14578125 -10.37109375 4.4140625 C-13 5 -13 5 -16 5 C-16 4.34 -16 3.68 -16 3 C-10.47239641 0.89424625 -5.93002267 -0.37851209 0 0 Z " fill="#054645" transform="translate(244,145)"/>
<path d="M0 0 C0.66 0 1.32 0 2 0 C1.63076923 7.26153846 1.63076923 7.26153846 -1.5625 11 C-2.366875 11.66 -3.17125 12.32 -4 13 C-3.27991594 8.39146203 -1.68704061 4.32762591 0 0 Z " fill="#404F52" transform="translate(242,246)"/>
<path d="M0 0 C3.06325753 0.60994066 5.20050634 1.57728011 7.75 3.375 C8.36359375 3.79523438 8.9771875 4.21546875 9.609375 4.6484375 C10.29773438 5.31746094 10.29773438 5.31746094 11 6 C11 6.99 11 7.98 11 9 C10.01 9.495 10.01 9.495 9 10 C9 9.34 9 8.68 9 8 C8.443125 7.79375 7.88625 7.5875 7.3125 7.375 C4.07498698 5.44999226 2.31768859 2.96149098 0 0 Z " fill="#119997" transform="translate(213,184)"/>
<path d="M0 0 C1.98146451 0.44829514 3.96014211 0.90892498 5.9375 1.375 C7.03964844 1.63023437 8.14179688 1.88546875 9.27734375 2.1484375 C10.17582031 2.42945313 11.07429687 2.71046875 12 3 C12.33 3.66 12.66 4.32 13 5 C11.41632253 4.85795259 9.83306682 4.71119847 8.25 4.5625 C7.36828125 4.48128906 6.4865625 4.40007812 5.578125 4.31640625 C3.30649548 4.03761535 1.20148177 3.61209423 -1 3 C-0.67 2.01 -0.34 1.02 0 0 Z " fill="#203A3C" transform="translate(211,218)"/>
<path d="M0 0 C-3.40219265 2.74792483 -7.48464588 6 -12 6 C-11 3 -11 3 -9.2578125 1.796875 C-8.55398438 1.45140625 -7.85015625 1.1059375 -7.125 0.75 C-6.42632812 0.39421875 -5.72765625 0.0384375 -5.0078125 -0.328125 C-3 -1 -3 -1 0 0 Z " fill="#81898A" transform="translate(308,190)"/>
<path d="M0 0 C0.99 0.33 1.98 0.66 3 1 C3.94921875 3.06640625 3.94921875 3.06640625 4.6875 5.5625 C4.93886719 6.38878906 5.19023437 7.21507812 5.44921875 8.06640625 C5.63097656 8.70449219 5.81273437 9.34257812 6 10 C4.68 9.67 3.36 9.34 2 9 C1.34 6.03 0.68 3.06 0 0 Z " fill="#868A8E" transform="translate(275,151)"/>
<path d="M0 0 C2 1 2 1 2.9375 3.375 C3.98373709 5.95982105 4.92113535 7.2046169 7 9 C5.68 9.33 4.36 9.66 3 10 C0.64551835 7.44931155 0.01672076 6.28982642 -0.1875 2.75 C-0.125625 1.8425 -0.06375 0.935 0 0 Z " fill="#5B6266" transform="translate(236,235)"/>
<path d="M0 0 C2.96865509 2.54456151 4.3619751 5.48994665 6 9 C5.34 9.66 4.68 10.32 4 11 C3.13341385 9.73760288 2.28207941 8.46472499 1.4375 7.1875 C0.72400391 6.12595703 0.72400391 6.12595703 -0.00390625 5.04296875 C-1 3 -1 3 0 0 Z " fill="#0C3C39" transform="translate(252,179)"/>
<path d="M0 0 C0.33 1.32 0.66 2.64 1 4 C-1.75924185 5.80411967 -2.88972103 6.0127245 -6.25 5.625 C-7.1575 5.41875 -8.065 5.2125 -9 5 C-8.443125 4.731875 -7.88625 4.46375 -7.3125 4.1875 C-4.80287477 2.89877353 -2.40665764 1.47073522 0 0 Z " fill="#1A3334" transform="translate(203,219)"/>
<path d="M0 0 C0.66 0.66 1.32 1.32 2 2 C-3.625 6.875 -3.625 6.875 -7 8 C-7 7.01 -7 6.02 -7 5 C-4.0625 2.875 -4.0625 2.875 -1 1 C-0.67 0.67 -0.34 0.34 0 0 Z " fill="#011514" transform="translate(198,182)"/>
<path d="M0 0 C1.5625 1.75 1.5625 1.75 3 4 C2.6875 6.25 2.6875 6.25 2 8 C1.01 8 0.02 8 -1 8 C-1.04241723 5.66705225 -1.04092937 3.33297433 -1 1 C-0.67 0.67 -0.34 0.34 0 0 Z " fill="#219E9E" transform="translate(235,166)"/>
<path d="M0 0 C0 0.66 0 1.32 0 2 C-4.29 2 -8.58 2 -13 2 C-7.59364886 -0.70317557 -5.99319838 -0.9988664 0 0 Z " fill="#246464" transform="translate(251,146)"/>
<path d="M0 0 C0.33 0.99 0.66 1.98 1 3 C1.66 3 2.32 3 3 3 C3.33 3.99 3.66 4.98 4 6 C2.68 7.32 1.36 8.64 0 10 C-1.6415049 6.7169902 -0.51888624 3.57454967 0 0 Z " fill="#646B6F" transform="translate(229,247)"/>
<path d="M0 0 C0.33 0.66 0.66 1.32 1 2 C-2.625 6.875 -2.625 6.875 -6 8 C-6.33 7.01 -6.66 6.02 -7 5 C-4.69 3.35 -2.38 1.7 0 0 Z " fill="#74787C" transform="translate(283,233)"/>
<path d="M0 0 C0.33 0.99 0.66 1.98 1 3 C-1.64738916 4.4606285 -2.89448334 5 -6 5 C-6 4.34 -6 3.68 -6 3 C-6.99 2.67 -7.98 2.34 -9 2 C-6.03 1.34 -3.06 0.68 0 0 Z " fill="#6C7377" transform="translate(312,219)"/>
<path d="M0 0 C1.5 1 1.5 1 3 3 C3.27345479 5.71846235 3.13491285 8.25677199 3 11 C2.34 11 1.68 11 1 11 C0.63890458 9.35567294 0.28629924 7.7094792 -0.0625 6.0625 C-0.25972656 5.14597656 -0.45695312 4.22945312 -0.66015625 3.28515625 C-0.77230469 2.53105469 -0.88445312 1.77695313 -1 1 C-0.67 0.67 -0.34 0.34 0 0 Z " fill="#757A7E" transform="translate(322,190)"/>
<path d="M0 0 C2.97 0.495 2.97 0.495 6 1 C6 1.33 6 1.66 6 2 C4.35 2 2.7 2 1 2 C0.5978125 3.2065625 0.5978125 3.2065625 0.1875 4.4375 C-0.4003125 5.7059375 -0.4003125 5.7059375 -1 7 C-1.99 7.33 -2.98 7.66 -4 8 C-2.87548273 5.0280615 -1.77706209 2.66559313 0 0 Z " fill="#0A696B" transform="translate(255,154)"/>
<path d="M0 0 C0.66 0.33 1.32 0.66 2 1 C2 1.33 2 1.66 2 2 C4.31 2 6.62 2 9 2 C9.33 2.66 9.66 3.32 10 4 C8.39125 3.938125 8.39125 3.938125 6.75 3.875 C3.34252515 3.9885825 1.79260369 4.21273364 -1 6 C-1.33 5.01 -1.66 4.02 -2 3 C-1.34 2.01 -0.68 1.02 0 0 Z " fill="#060607" transform="translate(193,332)"/>
<path d="M0 0 C0.33 0 0.66 0 1 0 C1 3.63 1 7.26 1 11 C2.98 11.495 2.98 11.495 5 12 C2.525 13.485 2.525 13.485 0 15 C0 10.05 0 5.1 0 0 Z " fill="#BCEAE9" transform="translate(357,321)"/>
<path d="M0 0 C0 0.99 0 1.98 0 3 C0.66 3.33 1.32 3.66 2 4 C-0.31 4 -2.62 4 -5 4 C-5.33 3.01 -5.66 2.02 -6 1 C-4 0 -4 0 0 0 Z " fill="#31A8A9" transform="translate(247,178)"/>
<path d="M0 0 C0.99 0.33 1.98 0.66 3 1 C1.68 3.64 0.36 6.28 -1 9 C-1.66 7.68 -2.32 6.36 -3 5 C-1.625 2.25 -1.625 2.25 0 0 Z " fill="#189B9B" transform="translate(236,182)"/>
<path d="M0 0 C0.99 0.33 1.98 0.66 3 1 C3 3.31 3 5.62 3 8 C2.01 8 1.02 8 0 8 C-0.79953138 4.71303767 -1.09658936 3.28976808 0 0 Z " fill="#33A8A6" transform="translate(253,167)"/>
<path d="M0 0 C4.31392226 0.4793247 6.16569547 1.7457985 9 5 C5.65626525 4.44271087 2.96687001 3.64826111 0 2 C0 1.34 0 0.68 0 0 Z " fill="#84888B" transform="translate(292,152)"/>
<path d="M0 0 C0.33 1.32 0.66 2.64 1 4 C1.66 4 2.32 4 3 4 C3.66 5.32 4.32 6.64 5 8 C3.0625 8.5625 3.0625 8.5625 1 9 C0 8 0 8 -0.09765625 6.15234375 C-0.06510417 4.1015625 -0.03255208 2.05078125 0 0 Z " fill="#0D2123" transform="translate(187,213)"/>
<path d="M0 0 C2.475 0.99 2.475 0.99 5 2 C5 2.99 5 3.98 5 5 C2.36 4.34 -0.28 3.68 -3 3 C-2.01 2.67 -1.02 2.34 0 2 C0 1.34 0 0.68 0 0 Z " fill="#9A9C9F" transform="translate(285,146)"/>
<path d="M0 0 C0.99 0.33 1.98 0.66 3 1 C1.68 3.31 0.36 5.62 -1 8 C-1.33 8 -1.66 8 -2 8 C-1.125 1.125 -1.125 1.125 0 0 Z " fill="#535D61" transform="translate(244,268)"/>
<path d="M0 0 C1.7074998 1.28062485 3.37373596 2.61767557 5 4 C5 4.66 5 5.32 5 6 C3.125 5.75 3.125 5.75 1 5 C-0.25 2.9375 -0.25 2.9375 -1 1 C-0.67 0.67 -0.34 0.34 0 0 Z " fill="#274344" transform="translate(268,209)"/>
<path d="M0 0 C0.78375 0.04125 1.5675 0.0825 2.375 0.125 C2.705 0.785 3.035 1.445 3.375 2.125 C2.055 1.795 0.735 1.465 -0.625 1.125 C-0.625 1.785 -0.625 2.445 -0.625 3.125 C-1.615 3.62 -1.615 3.62 -2.625 4.125 C-3.285 5.115 -3.945 6.105 -4.625 7.125 C-4.75 4.75 -4.75 4.75 -4.625 2.125 C-2.625 0.125 -2.625 0.125 0 0 Z " fill="#0B2526" transform="translate(211.625,195.875)"/>
<path d="M0 0 C2.64 0.66 5.28 1.32 8 2 C8 2.66 8 3.32 8 4 C5.36 3.67 2.72 3.34 0 3 C0 2.01 0 1.02 0 0 Z " fill="#7E8A8E" transform="translate(266,148)"/>
<path d="M0 0 C2.97 0.495 2.97 0.495 6 1 C6.33 1.99 6.66 2.98 7 4 C4.69 3.34 2.38 2.68 0 2 C0 1.34 0 0.68 0 0 Z " fill="#2B373C" transform="translate(205,239)"/>
<path d="M0 0 C1.98 0.66 3.96 1.32 6 2 C6 2.99 6 3.98 6 5 C3.69 4.01 1.38 3.02 -1 2 C-0.67 1.34 -0.34 0.68 0 0 Z " fill="#051E1B" transform="translate(261,206)"/>
<path d="M0 0 C0.99 0.33 1.98 0.66 3 1 C3.33 3.31 3.66 5.62 4 8 C0 3.375 0 3.375 0 0 Z " fill="#17948D" transform="translate(281,185)"/>
<path d="M0 0 C0.66 0.33 1.32 0.66 2 1 C1.34 3.31 0.68 5.62 0 8 C-0.66 7.67 -1.32 7.34 -2 7 C-1.125 1.125 -1.125 1.125 0 0 Z " fill="#888C91" transform="translate(281,162)"/>
<path d="M0 0 C0.66 0 1.32 0 2 0 C1.71125 0.53625 1.4225 1.0725 1.125 1.625 C-0.16711808 4.35280484 -1.08558592 7.12612718 -2 10 C-2.33 10 -2.66 10 -3 10 C-3.2295711 6.63295715 -3.33943529 4.58629732 -1.625 1.625 C-1.08875 1.08875 -0.5525 0.5525 0 0 Z " fill="#14A1A3" transform="translate(216,146)"/>
</svg>
